<?xml version="1.0" encoding="UTF-8" standalone="no"?>
<svg
   width="64"
   height="64"
   version="1.1"
   id="svg46"
   sodipodi:docname="x-office-document.svg"
   xml:space="preserve"
   inkscape:version="1.2.2 (b0a8486541, 2022-12-01)"
   xmlns:inkscape="http://www.inkscape.org/namespaces/inkscape"
   xmlns:sodipodi="http://sodipodi.sourceforge.net/DTD/sodipodi-0.dtd"
   xmlns="http://www.w3.org/2000/svg"
   xmlns:svg="http://www.w3.org/2000/svg"><defs
     id="defs50" /><sodipodi:namedview
     id="namedview48"
     pagecolor="#ffffff"
     bordercolor="#000000"
     borderopacity="0.25"
     inkscape:showpageshadow="2"
     inkscape:pageopacity="0.0"
     inkscape:pagecheckerboard="0"
     inkscape:deskcolor="#d1d1d1"
     showgrid="false"
     inkscape:zoom="7.375"
     inkscape:cx="-15.186441"
     inkscape:cy="28.677966"
     inkscape:window-width="2560"
     inkscape:window-height="1367"
     inkscape:window-x="0"
     inkscape:window-y="0"
     inkscape:window-maximized="1"
     inkscape:current-layer="svg46" /><path
     style="opacity:0.2"
     d="M 12.75,5 C 11.2265,5 10,6.2488 10,7.8 v 50.4 c 0,1.55008 1.2265,2.8 2.75,2.8 h 38.5 C 52.7724,61 54,59.75008 54,58.2 V 23 L 40,19 36,5 Z"
     id="path2" /><path
     style="fill:#1b83d4"
     d="M 12.75,4 C 11.2265,4 10,5.2488 10,6.8 v 50.4 c 0,1.55008 1.2265,2.8 2.75,2.8 h 38.5 C 52.7724,60 54,58.75008 54,57.2 V 22 L 40,18 36,4 Z"
     id="path4" /><path
     style="opacity:0.2"
     d="M 54,23 36,5 V 20.1875 C 36,21.74675 37.2555,23 38.8125,23 Z"
     id="path6" /><path
     style="fill:#3b9ce6"
     d="M 54,22 36,4 V 19.1875 C 36,20.74675 37.2555,22 38.8125,22 Z"
     id="path8" /><path
     style="opacity:0.2;fill:#ffffff"
     d="M 12.75 4 C 11.2265 4 10 5.2495812 10 6.8007812 L 10 7.8007812 C 10 6.2495813 11.2265 5 12.75 5 L 36 5 L 36 4 L 12.75 4 z"
     id="path10" /><g
     style="opacity:0.2"
     transform="translate(0,6)"
     id="g26"><rect
       width="14"
       height="10"
       x="34"
       y="24"
       rx="2"
       ry="2"
       id="rect12" /><rect
       width="14"
       height="2"
       x="16"
       y="24"
       rx="1"
       ry="1"
       id="rect14" /><rect
       width="14"
       height="2"
       x="16"
       y="28"
       rx="1"
       ry="1"
       id="rect16" /><rect
       width="14"
       height="2"
       x="16"
       y="32"
       rx="1"
       ry="1"
       id="rect18" /><rect
       width="14"
       height="2"
       x="16"
       y="46"
       rx="1"
       ry="1"
       id="rect20" /><rect
       width="32"
       height="2"
       x="16"
       y="42"
       rx="1"
       ry="1"
       id="rect22" /><rect
       width="32"
       height="2"
       x="16"
       y="38"
       rx="1"
       ry="1"
       id="rect24" /></g><rect
     style="fill:#ffffff"
     width="14"
     height="2"
     x="16"
     y="29"
     rx="1"
     ry="1"
     id="rect28" /><rect
     style="fill:#ffffff"
     width="14"
     height="2"
     x="16"
     y="33"
     rx="1"
     ry="1"
     id="rect30" /><rect
     style="fill:#ffffff"
     width="14"
     height="2"
     x="16"
     y="37"
     rx="1"
     ry="1"
     id="rect32" /><rect
     style="fill:#ffffff"
     width="14"
     height="2"
     x="16"
     y="51"
     rx="1"
     ry="1"
     id="rect34" /><rect
     style="fill:#ffffff"
     width="32"
     height="2"
     x="16"
     y="47"
     rx="1"
     ry="1"
     id="rect36" /><rect
     style="fill:#ffffff"
     width="32"
     height="2"
     x="16"
     y="43"
     rx="1"
     ry="1"
     id="rect38" /><rect
     style="fill:#7ad2f9"
     width="14"
     height="10"
     x="34"
     y="29"
     rx="2"
     ry="2"
     id="rect40" /><circle
     style="fill:#1b83d4"
     cx="45"
     cy="32"
     r="1"
     id="circle42" /><path
     style="fill:#1b83d4"
     d="M 36,37 39,32 43,37 Z"
     id="path44" /><g
     id="g1138"
     transform="matrix(1.173057,0,0,1.173057,70.806715,-13.293429)"><ellipse
       style="opacity:0.2;fill:#1b83d4;fill-opacity:1;stroke:none;stroke-width:2.04388;stroke-linejoin:round;stroke-opacity:0.320688;stop-color:#000000"
       id="path277-3"
       cx="-17.486494"
       cy="53.923729"
       rx="10.892253"
       ry="11.353058" /><ellipse
       style="opacity:1;fill:#ffffff;fill-opacity:1;stroke:none;stroke-width:2.04388;stroke-linejoin:round;stroke-opacity:0.320688;stop-color:#000000"
       id="path277"
       cx="-17.454449"
       cy="52.913136"
       rx="10.892253"
       ry="11.353058" /><g
       id="g444"
       transform="matrix(0.29862144,0,0,0.29862144,-33.84077,25.048141)"><g
         id="g435"
         transform="translate(23.323627,59.025459)"><path
           style="opacity:0.2"
           d="m 31.960902,5.0000672 c -6.384298,-0.01781 -12.55671,3.3596842 -15.800763,9.3320198 -1.545143,2.844626 -2.188283,5.92095 -2.109372,8.945302 1.846536,-0.554113 3.798099,-0.862887 5.820305,-0.863281 l 4.039058,-0.004 c 0.0798,-1.170318 0.396919,-2.310619 0.957031,-3.347652 2.178201,-4.010101 6.891675,-5.310208 10.929674,-3.117184 3.758536,2.046925 5.163444,6.358512 3.507808,10.273426 l -3.710933,6.882897 3.23437,3.898434 h 6.046869 l 2.96484,-5.468744 C 52.558403,22.844246 49.289645,11.95351 40.542922,7.2031896 37.809337,5.7185887 34.862855,5.0081624 31.960902,5.0000672 Z m -4.874994,19.9999758 -7.210929,0.004 C 10.003502,25.003957 2,33.065378 2,43.003928 2,52.943322 10.003502,61 19.874979,61 c 3.696669,0 7.130225,-1.131517 9.980456,-3.066402 -1.630858,-1.408337 -3.057511,-3.108855 -4.191401,-5.085932 l -1.566405,-2.921871 c -1.275858,0.769927 -2.73129,1.176153 -4.218744,1.179685 -4.556861,0 -7.945303,-3.517244 -7.945303,-8.105458 0.005,-4.273379 3.119442,-7.559501 7.343741,-7.972647 l 7.808585,-0.02734 2.914058,-4.72265 z m 24.878876,1.984374 c -0.404233,2.116531 -1.163343,4.201347 -2.308591,6.171866 l -1.746092,2.816403 c 1.304708,0.719963 2.386023,1.779994 3.132808,3.066402 2.278431,3.94636 0.926641,8.639472 -3.04687,10.933581 -3.703346,2.132378 -8.10817,1.076781 -10.578114,-2.374997 l -3.925775,-6.749992 -5.546869,-0.16406 -3.117184,5.164056 3.613277,6.242181 c 4.935746,8.548947 15.916375,11.449728 24.523409,6.48046 8.607768,-4.969696 11.584172,-15.927583 6.64843,-24.476533 -1.848334,-3.20141 -4.547655,-5.608437 -7.648429,-7.109365 z"
           id="path411" /><path
           style="fill:#aee5ff"
           d="m 24.829973,44.848211 3.610427,6.242644 c 4.935746,8.548948 15.916255,11.450236 24.523289,6.480968 8.607768,-4.969696 11.584702,-15.929319 6.64896,-24.478268 -1.848334,-3.20141 -4.545379,-5.60918 -7.646153,-7.11011 -0.404233,2.116532 -1.163781,4.203807 -2.309029,6.174327 l -1.74837,2.814406 c 1.304708,0.719964 2.387755,1.779188 3.13454,3.065597 2.278431,3.946359 0.925445,8.640197 -3.048066,10.934307 -3.703346,2.132377 -8.108798,1.077618 -10.578742,-2.37416 l -3.926563,-6.749725 -5.546439,-0.16272 z"
           id="path413" /><path
           style="fill:#2279ca"
           d="m 27.085826,23.999986 -7.211504,0.0054 C 10.002845,24.005394 2,32.064148 2,42.002698 c 0,9.939394 8.002845,17.997304 17.874322,17.997304 3.69667,0 7.130382,-1.131822 9.980613,-3.066708 -1.630858,-1.408336 -3.058719,-3.109764 -4.192609,-5.086842 l -1.563165,-2.921334 c -1.275858,0.769927 -2.734698,1.17826 -4.222153,1.181792 -4.556861,0 -7.945354,-3.518642 -7.945353,-8.106856 0.005,-4.273379 3.121152,-7.561235 7.345451,-7.97438 l 7.808716,-0.02564 2.914144,-4.721995 z"
           id="path415" /><path
           style="fill:#64cefe"
           d="m 31.960902,4.0000696 c -6.384298,-0.01781 -12.55671,3.3596842 -15.800763,9.3320204 -1.545143,2.844625 -2.188283,5.92095 -2.109372,8.945302 1.846536,-0.554114 3.798099,-0.862887 5.820305,-0.863281 l 4.039058,-0.004 c 0.0798,-1.170319 0.396919,-2.31062 0.957031,-3.347652 2.178201,-4.010102 6.891675,-5.310209 10.929674,-3.117184 3.758536,2.046925 5.163444,6.358512 3.507808,10.273425 l -3.710933,6.882898 3.23437,3.898433 h 6.046869 l 2.96484,-5.468743 C 52.558403,21.844248 49.289645,10.953513 40.542922,6.203192 37.809337,4.7185911 34.862855,4.0081648 31.960902,4.0000696 Z"
           id="path417" /><path
           style="opacity:0.2;fill:#ffffff"
           d="m 31.960938,4 c -6.384299,-0.01781 -12.556729,3.3596951 -15.800782,9.332031 -1.545143,2.844625 -2.188286,5.920961 -2.109375,8.945313 0.0012,-3.61e-4 0.0027,3.54e-4 0.0039,0 0.07304,-2.698897 0.730238,-5.413499 2.105468,-7.945313 C 19.404209,8.3596956 25.576639,4.98219 31.960938,5 34.862891,5.0081 37.809384,5.7185241 40.542969,7.203125 46.399035,10.383539 49.775256,16.318702 49.964844,22.5 50.130063,15.965335 46.714451,9.5548399 40.542969,6.203125 37.809384,4.7185241 34.862891,4.0080952 31.960938,4 Z m 7.953124,18.789062 c -0.08846,0.811973 -0.270392,1.628129 -0.609374,2.429688 l -3.710938,6.882812 0.326172,0.394532 3.384766,-6.277344 c 0.338982,-0.801559 0.520915,-1.617715 0.609374,-2.429688 0.02822,0.200463 0.03012,0.406065 0.04297,0.609376 0.03318,-0.542604 0.03124,-1.082289 -0.04297,-1.609376 z m 12.050782,3.195313 c -0.404233,2.11653 -1.163346,4.201355 -2.308594,6.171875 l -1.746094,2.816406 c 0.154817,0.08543 0.295757,0.189892 0.44336,0.285156 L 49.65625,33.15625 c 1.145248,-1.97052 1.904361,-4.055345 2.308594,-6.171875 3.100774,1.500926 5.800103,3.907965 7.648437,7.109375 1.518991,2.630969 2.274296,5.489575 2.359375,8.332031 0.0821,-3.168205 -0.661983,-6.392062 -2.359375,-9.332031 -1.848334,-3.20141 -4.547663,-5.608449 -7.648437,-7.109375 z m -24.019532,13.699219 -3.117187,5.164062 0.294922,0.509766 2.822265,-4.673828 5.546876,0.164062 3.925781,6.75 c 2.469944,3.451778 6.874779,4.507377 10.578125,2.375 2.361471,-1.363397 3.768592,-3.578837 4.066406,-5.976562 0.02746,0.195912 0.02474,0.39044 0.03711,0.585937 0.03545,-0.524849 0.0375,-1.053758 -0.03711,-1.585937 -0.297814,2.397725 -1.704935,4.613165 -4.066406,5.976562 -3.703346,2.132377 -8.108181,1.076778 -10.578125,-2.375 l -3.925781,-6.75 z"
           id="path419" /><path
           style="opacity:0.1;fill:#ffffff"
           d="M 27.085938,24 19.875,24.003906 C 10.003523,24.003914 2,32.065356 2,42.003906 2,42.171412 2.0150906,42.335123 2.0253906,42.5 2.2929449,32.796528 10.172505,25.003914 19.875,25.003906 L 27.085938,25 29.708984,29.75 30,29.277344 Z m -15.0625,18.996094 c -0.04008,0.331857 -0.08944,0.658144 -0.08984,1.003906 0,0.223345 0.01545,0.442169 0.03125,0.660156 0.01778,-0.221864 0.03208,-0.44457 0.05859,-0.664062 0.457588,4.084199 3.639527,7.109375 7.855468,7.109375 1.487454,-0.0035 2.942892,-0.409761 4.21875,-1.179688 l 1.566406,2.921875 c 0.97888,1.706798 2.186642,3.193995 3.544922,4.478516 0.220881,-0.123156 0.438025,-0.251064 0.646485,-0.392578 -1.630858,-1.408336 -3.057517,-3.10886 -4.191407,-5.085938 l -1.566406,-2.921875 c -1.275858,0.769927 -2.731296,1.176156 -4.21875,1.179688 -4.215941,0 -7.39788,-3.025176 -7.855468,-7.109375 z"
           id="path421" /></g></g></g></svg>
