<?xml version="1.0" encoding="UTF-8" standalone="no"?>
<svg
   viewBox="0 0 320 320"
   version="1.1"
   id="svg184"
   sodipodi:docname="ChatGPT.svg"
   inkscape:version="1.2.2 (b0a8486541, 2022-12-01)"
   xmlns:inkscape="http://www.inkscape.org/namespaces/inkscape"
   xmlns:sodipodi="http://sodipodi.sourceforge.net/DTD/sodipodi-0.dtd"
   xmlns="http://www.w3.org/2000/svg"
   xmlns:svg="http://www.w3.org/2000/svg">
  <defs
     id="defs188" />
  <sodipodi:namedview
     id="namedview186"
     pagecolor="#ffffff"
     bordercolor="#000000"
     borderopacity="0.25"
     inkscape:showpageshadow="2"
     inkscape:pageopacity="0.0"
     inkscape:pagecheckerboard="0"
     inkscape:deskcolor="#d1d1d1"
     showgrid="false"
     inkscape:zoom="3.628125"
     inkscape:cx="160.27562"
     inkscape:cy="160.27562"
     inkscape:window-width="2560"
     inkscape:window-height="1367"
     inkscape:window-x="0"
     inkscape:window-y="36"
     inkscape:window-maximized="1"
     inkscape:current-layer="svg184" />
  <path
     d="m 284.42569,133.54495 c 6.5951,-19.79436 4.32406,-41.478239 -6.22265,-59.483029 C 262.34212,46.446098 230.45675,32.238483 199.31627,38.924419 185.46294,23.317845 165.55956,14.442628 144.69326,14.569807 112.86239,14.497133 84.61976,34.990982 74.827044,65.277545 54.378617,69.46534 36.728108,82.26491 26.399428,100.40596 c -15.979025,27.54315 -12.33628,62.26279 9.011479,85.88158 -6.595095,19.79437 -4.324057,41.47824 6.222644,59.48303 15.86093,27.61582 47.746305,41.82344 78.886779,35.13751 13.84425,15.60657 33.75672,24.48179 54.62301,24.34552 31.84904,0.0818 60.10075,-20.43026 69.89347,-50.74407 20.44842,-4.1878 38.09894,-16.98737 48.42762,-35.12842 15.96085,-27.54316 12.30902,-62.23553 -9.02966,-85.85433 z M 175.1615,286.25864 c -12.74506,0.0182 -25.09042,-4.44216 -34.87405,-12.6088 0.44512,-0.23619 1.21728,-0.66314 1.7169,-0.97201 l 57.88422,-33.42968 c 2.96144,-1.68057 4.77826,-4.83277 4.76009,-8.23933 v -81.60294 l 24.46363,14.12586 c 0.26344,0.12718 0.43604,0.38154 0.47238,0.67223 v 67.57701 c -0.0364,30.05037 -24.37279,54.41407 -54.42317,54.47766 z M 58.121288,236.26855 c -6.38616,-11.02816 -8.68445,-23.95491 -6.495169,-36.50013 0.426955,0.25436 1.180939,0.71765 1.716904,1.02651 l 57.884217,33.42968 c 2.93418,1.71691 6.56784,1.71691 9.51111,0 l 70.66562,-40.80601 v 28.25171 c 0.0182,0.2907 -0.11809,0.57231 -0.3452,0.75399 l -58.51102,33.78396 c -26.06243,15.00702 -59.346769,6.08639 -74.417378,-19.93971 z M 42.887164,109.91707 c 6.358907,-11.04633 16.396895,-19.49459 28.35164,-23.882236 0,0.499629 -0.02725,1.380791 -0.02725,1.998514 V 154.9018 c -0.01817,3.39747 1.798663,6.54967 4.751012,8.23024 l 70.665624,40.79692 -24.46363,14.12586 c -0.24527,0.16351 -0.55413,0.19077 -0.82665,0.0727 L 62.817794,184.31628 C 36.809866,169.25476 27.889228,135.97951 42.87808,109.92616 Z m 200.995966,46.7743 -70.66563,-40.80601 24.46362,-14.11678 c 0.24527,-0.16351 0.55413,-0.19076 0.82666,-0.0727 l 58.52011,33.78396 c 26.05335,15.05243 34.98307,48.38219 19.93063,74.43555 -6.36799,11.02816 -16.39689,19.47642 -28.34256,23.87314 v -68.86695 c 0.0272,-3.39747 -1.78049,-6.54059 -4.72375,-8.23024 z m 24.34552,-36.64547 c -0.42695,-0.26344 -1.18094,-0.71765 -1.71691,-1.02651 L 208.62752,85.58971 c -2.93418,-1.716904 -6.56784,-1.716904 -9.51111,0 l -70.66562,40.80601 V 98.144012 c -0.0182,-0.290693 0.1181,-0.572307 0.3452,-0.753986 l 58.51103,-33.756712 c 26.06244,-15.034272 59.3831,-6.086382 74.40829,19.985135 6.34982,11.009993 8.64812,23.900411 6.49517,36.427451 z M 115.1516,170.39936 90.67889,156.2735 c -0.26344,-0.12717 -0.436039,-0.38153 -0.472376,-0.67222 V 88.024263 C 90.224683,57.93755 114.6338,33.555685 144.72051,33.573854 c 12.7269,0 25.04501,4.469402 34.82864,12.608803 -0.44512,0.236188 -1.20819,0.663143 -1.7169,0.972005 l -57.88422,33.429681 c -2.96143,1.680567 -4.77826,4.823684 -4.7601,8.230241 l -0.0363,81.566606 z m 13.29011,-28.65142 31.47659,-18.17738 31.47659,18.16829 v 36.3457 l -31.47659,18.16831 -31.47659,-18.16831 z"
     id="path182"
     style="fill:#78a89c;fill-opacity:1;stroke-width:0.908415" />
</svg>
