<?xml version="1.0" encoding="UTF-8" standalone="no"?>
<svg
   width="32"
   height="32"
   version="1"
   id="svg22"
   sodipodi:docname="wrapweb.svg"
   inkscape:version="1.2.2 (b0a8486541, 2022-12-01)"
   xmlns:inkscape="http://www.inkscape.org/namespaces/inkscape"
   xmlns:sodipodi="http://sodipodi.sourceforge.net/DTD/sodipodi-0.dtd"
   xmlns="http://www.w3.org/2000/svg"
   xmlns:svg="http://www.w3.org/2000/svg">
  <defs
     id="defs26" />
  <sodipodi:namedview
     id="namedview24"
     pagecolor="#ffffff"
     bordercolor="#000000"
     borderopacity="0.25"
     inkscape:showpageshadow="2"
     inkscape:pageopacity="0.0"
     inkscape:pagecheckerboard="0"
     inkscape:deskcolor="#d1d1d1"
     showgrid="false"
     inkscape:zoom="32.09375"
     inkscape:cx="21.296981"
     inkscape:cy="18.741967"
     inkscape:window-width="2560"
     inkscape:window-height="1367"
     inkscape:window-x="0"
     inkscape:window-y="0"
     inkscape:window-maximized="1"
     inkscape:current-layer="svg22" />
  <path
     style="opacity:0.2"
     d="M 2,8.9003906 V 29.400391 C 2,30.287391 2.7132095,31 3.5996094,31 H 16 28.400391 C 29.286791,31 30,30.287391 30,29.400391 V 8.9003906 H 16 Z"
     id="path2" />
  <g
     id="g1662">
    <path
       style="fill:#dad9df;fill-opacity:1"
       d="M 1.9376826,7.9003906 V 28.400391 C 1.9376826,29.287391 2.6508921,30 3.537292,30 h 12.400391 12.400391 c 0.8864,0 1.599609,-0.712609 1.599609,-1.599609 V 7.9003906 h -14 z"
       id="path4" />
  </g>
  <path
     style="fill:#45458d;fill-opacity:1"
     d="M 3.5996094,2 C 2.7132095,2 2,2.7126095 2,3.5996094 V 8 h 13 2 13 V 3.5996094 C 30,2.7126095 29.286791,2 28.400391,2 H 17 15 Z"
     id="path6" />
  <path
     style="opacity:0.2"
     d="m 22,5 a 1,1 0 0 0 -1,1 1,1 0 0 0 1,1 1,1 0 0 0 1,-1 1,1 0 0 0 -1,-1 z m 3,0 a 1,1 0 0 0 -1,1 1,1 0 0 0 1,1 1,1 0 0 0 1,-1 1,1 0 0 0 -1,-1 z m 3,0 a 1,1 0 0 0 -1,1 1,1 0 0 0 1,1 1,1 0 0 0 1,-1 1,1 0 0 0 -1,-1 z"
     id="path8" />
  <circle
     style="fill:#ffffff"
     cx="28"
     cy="5"
     r="1"
     id="circle10" />
  <circle
     style="fill:#ffffff"
     cx="25"
     cy="5"
     r="1"
     id="circle12" />
  <circle
     style="fill:#ffffff"
     cx="22"
     cy="5"
     r="1"
     id="circle14" />
  <path
     style="opacity:0.1;fill:#ffffff"
     d="M 3.5996094,2 C 2.7132095,2 2,2.7126095 2,3.5996094 v 1 C 2,3.7126095 2.7132095,3 3.5996094,3 H 15 17 28.400391 C 29.286791,3 30,3.7126095 30,4.5996094 v -1 C 30,2.7126095 29.286791,2 28.400391,2 H 17 15 Z"
     id="path16" />
  <g
     id="g511"
     transform="matrix(1.2854592,0,0,1.2637609,-4.0948781,-3.4484031)">
    <circle
       style="opacity:0.2;stroke-width:0.704109"
       cx="15.750435"
       cy="18.242384"
       r="7.0410886"
       id="circle241" />
    <path
       style="fill:#6199f6;stroke-width:0.704109"
       d="m 9.658486,21.425659 c 1.232895,2.138379 3.405775,3.375498 5.687792,3.505758 2.4334,-1.342735 3.723328,-3.050199 3.093854,-5.36883 -0.266857,0.43514 -0.636514,0.812542 -1.111083,1.08644 -0.754101,0.435844 -1.451873,-0.02253 -2.228505,-0.226019 -0.787898,-0.206303 -1.652543,-0.167577 -2.093316,-0.932944 L 9.865494,14.043078 c -1.41385,2.150348 -1.584949,4.992836 -0.207008,7.382581 z"
       id="path243" />
    <path
       style="fill:#396bd7;stroke-width:0.704109"
       d="m 15.839858,10.84924 c -0.92027,0 -2.350315,0.174619 -3.900059,1.12235 -7.04e-4,0 -0.0021,7.04e-4 -0.0028,0.0014 l -0.0014,0.0014 c -0.755509,0.494285 -1.735629,1.337807 -2.424247,2.670685 l 3.217777,5.053389 c -0.261928,-0.437251 -0.126739,-1.130094 -0.149975,-1.677187 -0.03943,-0.936465 0.782969,-1.369492 1.401177,-1.975025 0.538643,-0.528082 1.805335,-1.251906 1.577204,-1.676483 h 6.279947 c -0.433027,-0.806205 -1.070246,-1.440607 -1.759568,-2.022905 -1.632125,-1.286407 -3.395213,-1.49764 -4.238032,-1.49764 z"
       id="path245" />
    <path
       style="fill:#a2c2fa;stroke-width:0.704109"
       d="m 21.837458,14.368376 -5.991967,0.0028 c 0.509775,0.01338 1.021662,0.499917 1.496232,0.77452 0.811133,0.468232 0.735089,1.394839 0.914637,2.241178 0.156312,0.737906 1.058276,1.242048 0.649892,1.948973 l -3.545188,5.576543 c 0.04084,0.0021 0.08097,0.0035 0.121107,0.0049 2.600978,0.106321 5.069584,-1.244864 6.384155,-3.548004 0.602717,-1.061092 0.925199,-2.294691 0.925199,-3.517728 v -0.0028 c 0,-0.158424 -0.01267,-0.314736 -0.01901,-0.473161 -0.08097,-1.059684 -0.400638,-2.088387 -0.935056,-3.007249 z"
       id="path247" />
    <path
       style="opacity:0.2;fill:#ffffff;stroke-width:0.704109"
       d="m 15.750436,10.84924 a 7.0410886,7.0410886 0 0 0 -7.041088,7.041089 7.0410886,7.0410886 0 0 0 0.0069,0.206282 7.0410886,7.0410886 0 0 1 7.034212,-6.895317 7.0410886,7.0410886 0 0 1 7.034213,6.834807 7.0410886,7.0410886 0 0 0 0.0069,-0.145772 7.0410886,7.0410886 0 0 0 -7.041089,-7.041089 z"
       id="path249" />
    <circle
       style="opacity:0.2;stroke-width:0.704109"
       cx="15.750435"
       cy="18.242384"
       r="3.5205443"
       id="circle251" />
    <circle
       style="fill:#ffffff;stroke-width:0.704109"
       cx="15.750435"
       cy="17.890329"
       r="3.5205443"
       id="circle253" />
    <circle
       style="fill:#4688f4;stroke-width:0.704109"
       cx="15.750435"
       cy="17.890329"
       r="2.8164353"
       id="circle255" />
  </g>
  <path
     style="opacity:0.1;stroke-width:1.29729"
     d="m 24.17351,11.524948 v 2.09023 c 0.993481,0.03844 1.509417,0.239982 1.96257,0.562754 0.444459,0.315117 0.654193,0.736498 0.654193,1.36669 v 2.130427 c 0,1.529407 0.784653,2.47385 2.780308,2.773574 v 0.160788 c -1.995655,0.276681 -2.780308,1.188614 -2.780308,2.733378 v 2.170624 c 0,0.630204 -0.209734,1.084099 -0.654193,1.406887 -0.444439,0.322785 -0.960373,0.507185 -1.96257,0.522557 v 2.09023 c 2.013096,-0.01538 3.036251,-0.292556 3.925143,-0.884328 0.880187,-0.584095 1.30838,-1.579961 1.30838,-2.894166 v -1.969639 c 0,-1.429482 0.298661,-2.17062 2.616762,-2.170624 v -2.170624 c -1.17648,7e-6 -1.150793,-0.216902 -1.717249,-0.562754 -0.575166,-0.35352 -0.899513,-0.852922 -0.899513,-1.567674 v -2.291214 c 0,-1.19891 -0.448964,-2.091934 -1.390154,-2.652984 -0.949894,-0.568705 -1.952276,-0.844115 -3.843369,-0.844132 z"
     id="path715" />
  <path
     style="opacity:0.1;stroke-width:1.29729"
     d="m 7.8784607,11.350317 c -1.8910925,1.8e-5 -2.8934748,0.275427 -3.8433684,0.844132 -0.9411903,0.56105 -1.3901546,1.454074 -1.3901546,2.652985 v 2.291213 c 0,0.714752 -0.3243476,1.214154 -0.8995118,1.567674 -0.5664567,0.345852 -0.5407694,0.562761 -1.71724971,0.562754 v 2.170624 c 2.31810001,5e-6 2.61676151,0.741142 2.61676151,2.170624 v 1.969639 c 0,1.314205 0.4281938,2.310071 1.3083808,2.894167 0.8888916,0.591771 1.9120455,0.868952 3.9251422,0.884327 v -2.09023 C 6.8762637,27.252854 6.3603291,27.068454 5.9158899,26.745669 5.4714329,26.422881 5.2616992,25.968986 5.2616992,25.338783 v -2.170625 c 0,-1.544764 -0.7846542,-2.456697 -2.780309,-2.733377 v -0.160789 c 1.9956548,-0.299723 2.780309,-1.244167 2.780309,-2.773574 v -2.130427 c 0,-0.630192 0.2097336,-1.051573 0.6541907,-1.36669 0.4531552,-0.322772 0.9690888,-0.524312 1.9625708,-0.562754 z"
     id="path515" />
  <path
     style="fill:#45458d;fill-opacity:1;stroke-width:1.29729"
     d="m 24.17351,10.238652 v 2.090231 c 0.993481,0.03845 1.509417,0.239982 1.96257,0.562754 0.444459,0.315117 0.654193,0.736498 0.654193,1.36669 v 2.130426 c 0,1.529407 0.784653,2.473852 2.780308,2.773576 v 0.160787 c -1.995655,0.27668 -2.780308,1.188613 -2.780308,2.733378 v 2.170624 c 0,0.630203 -0.209734,1.084098 -0.654193,1.406884 -0.444439,0.322787 -0.960373,0.507188 -1.96257,0.522558 v 2.090232 c 2.013096,-0.01537 3.036251,-0.292556 3.925143,-0.884329 0.880187,-0.584094 1.30838,-1.579961 1.30838,-2.894165 v -1.96964 c 0,-1.429482 0.298661,-2.17062 2.616762,-2.170625 v -2.170624 c -1.17648,8e-6 -1.150793,-0.216902 -1.717249,-0.562753 -0.575166,-0.35352 -0.899513,-0.852922 -0.899513,-1.567673 v -2.291215 c 0,-1.198908 -0.448964,-2.091932 -1.390154,-2.652985 -0.949894,-0.568704 -1.952276,-0.844114 -3.843369,-0.844131 z"
     id="path711" />
  <path
     style="fill:#45458d;fill-opacity:1;stroke-width:1.29729"
     d="m 7.8784607,10.064021 c -1.8910925,1.7e-5 -2.8934748,0.275427 -3.8433684,0.844133 -0.9411903,0.561051 -1.3901546,1.454075 -1.3901546,2.652983 v 2.291215 c 0,0.714752 -0.3243476,1.214153 -0.8995118,1.567673 -0.5664567,0.345852 -0.5407694,0.562761 -1.71724971,0.562754 v 2.170624 c 2.31810001,4e-6 2.61676151,0.741142 2.61676151,2.170624 v 1.96964 c 0,1.314204 0.4281938,2.310071 1.3083808,2.894165 0.8888916,0.591773 1.9120455,0.868954 3.9251422,0.884329 V 25.981929 C 6.8762637,25.966563 6.3603291,25.782159 5.9158899,25.459372 5.4714329,25.136585 5.2616992,24.68269 5.2616992,24.052487 v -2.170624 c 0,-1.544765 -0.7846542,-2.456698 -2.780309,-2.733378 v -0.160787 c 1.9956548,-0.299724 2.780309,-1.244169 2.780309,-2.773576 v -2.130426 c 0,-0.630192 0.2097336,-1.051573 0.6541907,-1.36669 0.4531552,-0.322772 0.9690888,-0.524314 1.9625708,-0.562754 z"
     id="path521" />
</svg>
