<?xml version="1.0" encoding="UTF-8" standalone="no"?>
<svg
   width="64"
   height="64"
   version="1"
   id="svg12"
   sodipodi:docname="wrapweb.svg"
   inkscape:version="1.2.2 (b0a8486541, 2022-12-01)"
   xmlns:inkscape="http://www.inkscape.org/namespaces/inkscape"
   xmlns:sodipodi="http://sodipodi.sourceforge.net/DTD/sodipodi-0.dtd"
   xmlns="http://www.w3.org/2000/svg"
   xmlns:svg="http://www.w3.org/2000/svg">
  <defs
     id="defs16" />
  <sodipodi:namedview
     id="namedview14"
     pagecolor="#ffffff"
     bordercolor="#000000"
     borderopacity="0.25"
     inkscape:showpageshadow="2"
     inkscape:pageopacity="0.0"
     inkscape:pagecheckerboard="0"
     inkscape:deskcolor="#d1d1d1"
     showgrid="false"
     inkscape:zoom="14.75"
     inkscape:cx="30.271186"
     inkscape:cy="31.898305"
     inkscape:window-width="2560"
     inkscape:window-height="1367"
     inkscape:window-x="0"
     inkscape:window-y="0"
     inkscape:window-maximized="1"
     inkscape:current-layer="svg12" />
  <rect
     style="opacity:0.2"
     width="56"
     height="56"
     x="4"
     y="5"
     rx="16.8"
     ry="16.8"
     id="rect2" />
  <rect
     style="fill:#7b89b7;fill-opacity:1"
     width="56"
     height="56"
     x="4"
     y="4"
     rx="16.8"
     ry="16.8"
     id="rect4" />
  <path
     style="fill:#ffffff;opacity:0.1"
     d="M 20.801 4 C 11.494 4 4 11.494 4 20.801 L 4 21.801 C 4 12.494 11.494 5 20.801 5 L 43.199 5 C 52.506 5 60 12.494 60 21.801 L 60 20.801 C 60 11.494 52.506 4 43.199 4 L 20.801 4 z"
     id="path10" />
  <path
     style="opacity:0.1;stroke-width:1.25713"
     d="M 28.777692,9.8641262 9.9506867,16.159722 v 33.996224 l 18.8270053,6.295596 z m 10.041069,3.7773578 -7.530802,2.518238 v 33.996224 l 7.530802,2.518238 z m 8.785936,3.777358 -6.275669,2.518239 v 26.441506 l 6.275669,2.518239 z m 7.530802,6.295597 -5.020535,1.259119 V 41.34211 l 5.020535,1.25912 z"
     id="path6" />
  <path
     style="fill:#e6e6e6;fill-opacity:1;stroke-width:1.25713"
     d="m 55.135499,22.45532 -5.020535,1.259119 v 16.368552 l 5.020535,1.259119 z"
     id="path2188" />
  <path
     style="fill:#f2f2f2;fill-opacity:1;stroke-width:1.25713"
     d="m 47.604697,16.159722 -6.275669,2.518239 v 26.441507 l 6.275669,2.518239 z"
     id="path2186" />
  <path
     style="fill:#f2f2f2;fill-opacity:1;stroke-width:1.25713"
     d="m 38.818761,12.382365 -7.530802,2.518239 v 33.996222 l 7.530802,2.518239 z"
     id="path2184" />
  <path
     style="fill:#f9f9f9;fill-opacity:1;stroke-width:1.25713"
     d="M 28.777692,8.6050063 9.9506867,14.900604 v 33.996222 l 18.8270053,6.295597 z"
     id="path8" />
  <g
     id="g1803"
     transform="matrix(1.0564485,0,0,0.92250537,-3.4950434,1.2425745)">
    <g
       id="g1813">
      <g
         id="g1870">
        <path
           style="opacity:0.2"
           d="m 29,33.425 -0.0391,1.6106 -0.1166,1.5903 -0.1923,1.5514 -0.265,1.495 -0.3335,1.422 -0.3971,1.3344 -0.4549,1.2336 -0.5062,1.1221 -0.5507,1.0015 -0.5882,0.8742 -0.6183,0.7424 -0.6415,0.6078 -0.6576,0.4725 -0.6671,0.3379 -0.6702,0.2056 -0.6676,0.0769 L 20.9746,49.0559 20.3281,48.8898 19.699,48.611 19.0911,48.226 18.508,47.7416 17.9526,47.1648 17.4274,46.5027 16.9348,45.7625 16.4765,44.951 16.0542,44.0754 15.6691,43.1422 15.3222,42.158 15.0146,41.1292 14.7468,40.0619 14.5194,38.9622 14.3328,37.8358 14.1873,36.6883 14.0833,35.5255 14.0208,34.3526 14,33.175 l 0.0208,-1.1769 0.0625,-1.1708 0.104,-1.1594 0.1455,-1.1426 0.1866,-1.1202 0.2274,-1.0921 0.2678,-1.0584 0.3076,-1.0185 0.3469,-0.9726 0.3851,-0.9204 0.4223,-0.8616 0.4583,-0.7961 0.4926,-0.7239 0.5252,-0.6445 0.5554,-0.5583 0.5831,-0.465 0.6079,-0.3648 0.6291,-0.2578 0.6465,-0.1445 0.6595,-0.0253 0.6676,0.0991 0.6702,0.228 0.6671,0.3601 0.6576,0.4944 0.6415,0.6292 0.6183,0.763 0.5882,0.8939 0.5507,1.0198 0.5062,1.1389 0.4549,1.2488 0.3971,1.3476 0.3335,1.4332 0.265,1.5038 0.1923,1.5578 0.1166,1.5942 z"
           id="circle1224" />
        <path
           style="fill:#6199f6"
           d="m 14.7514,39.4041 0.1286,0.5359 0.1371,0.5222 0.1455,0.5082 0.1536,0.4943 0.1618,0.4801 0.1698,0.4658 0.1777,0.4513 0.1853,0.4366 0.193,0.4215 0.2004,0.4063 0.2078,0.3906 0.2149,0.3746 0.2221,0.3583 0.2289,0.3414 0.2358,0.3243 0.2423,0.3065 0.2488,0.2884 0.2551,0.2696 0.2612,0.2503 0.2671,0.2304 0.2729,0.2099 0.2784,0.1888 0.2836,0.1669 0.2888,0.1443 0.3063,-0.2733 0.2976,-0.2897 0.2881,-0.3066 0.2778,-0.3238 0.2666,-0.3414 0.2548,-0.3593 0.242,-0.3775 0.2285,-0.396 0.2142,-0.4147 0.1992,-0.4336 0.1832,-0.4526 0.1666,-0.4716 0.1492,-0.4907 0.1311,-0.5097 0.1123,-0.5286 0.0928,-0.5474 0.0728,-0.5658 0.0522,-0.5841 0.0309,-0.6019 0.0093,-0.6193 -0.0127,-0.6362 -0.0352,-0.6526 -0.058,-0.6683 -0.0809,-0.6834 -0.0398,0.1243 -0.041,0.1225 -0.0422,0.1207 -0.0433,0.1188 -0.0446,0.1169 -0.0457,0.1149 -0.0469,0.1129 -0.048,0.1109 -0.0492,0.1087 -0.0503,0.1065 -0.0515,0.1043 -0.0526,0.1021 -0.0538,0.0998 -0.0548,0.0974 -0.056,0.0949 -0.0571,0.0926 -0.0582,0.0901 -0.0593,0.0875 -0.0603,0.0849 -0.0615,0.0823 -0.0625,0.0797 -0.0636,0.077 -0.0646,0.0742 -0.0657,0.0714 -0.1046,0.1007 -0.1036,0.0802 -0.1027,0.061 -0.1018,0.0429 -0.1009,0.0262 -0.1003,0.0107 L 21.3147,39.1558 21.2158,39.139 21.1173,39.1103 21.0194,39.0709 20.9219,39.0219 20.8247,38.9646 20.7277,38.9 20.631,38.8293 20.5345,38.7537 20.438,38.6743 20.3415,38.5922 20.245,38.5085 20.1485,38.4244 20.0518,38.3409 19.9549,38.2591 19.8577,38.1801 19.7602,38.105 19.6624,38.0349 19.5628,37.9693 19.463,37.9085 19.3633,37.8515 19.2639,37.7973 19.165,37.745 l -0.0982,-0.0516 -0.0973,-0.0516 -0.0962,-0.0527 -0.0948,-0.0547 -0.0933,-0.0577 -0.0917,-0.0615 -0.0897,-0.0664 -0.0876,-0.0721 -0.0854,-0.0788 -0.0829,-0.0864 -0.0803,-0.0948 -0.0775,-0.1043 -0.0745,-0.1146 -0.0713,-0.1257 -0.068,-0.138 -0.0645,-0.1509 -0.0609,-0.1649 -0.0569,-0.1798 -0.053,-0.1956 -0.1205,-0.4821 -0.1199,-0.4794 -0.1192,-0.4769 -0.1186,-0.4743 -0.1179,-0.4717 -0.1174,-0.4692 -0.1166,-0.4667 -0.1161,-0.4641 -0.1154,-0.4617 -0.1148,-0.4593 -0.1142,-0.4567 -0.1137,-0.4544 -0.113,-0.452 -0.1124,-0.4495 -0.1118,-0.4472 -0.1112,-0.4449 -0.1106,-0.4425 -0.1101,-0.4403 -0.1095,-0.4379 -0.1089,-0.4356 -0.1084,-0.4334 -0.1078,-0.4312 -0.1072,-0.429 -0.1067,-0.4267 -0.138,0.5573 -0.1265,0.5651 -0.1152,0.5721 -0.104,0.5787 -0.0928,0.5846 -0.0817,0.5901 -0.0705,0.5949 -0.0595,0.5992 -0.0483,0.6031 -0.0373,0.6064 -0.026,0.6093 -0.0149,0.6118 -0.0035,0.6137 0.0079,0.6153 0.0194,0.6164 0.0311,0.6171 0.0429,0.6174 0.0549,0.6172 0.0671,0.6167 0.0795,0.6158 0.0922,0.6144 0.1052,0.6127 0.1184,0.6106 z"
           id="path1226" />
        <path
           style="fill:#396bd7"
           d="m 20.4212,16.8596 -0.1224,0.0429 -0.1271,0.0491 -0.1315,0.0556 -0.1357,0.0627 -0.1396,0.0701 -0.1433,0.078 -0.1466,0.0863 -0.1499,0.095 -0.1528,0.1041 -0.1555,0.1136 -0.1579,0.1234 -0.1602,0.1337 -0.1623,0.1443 -0.164,0.1552 -0.1656,0.1665 -0.167,0.1782 -0.1682,0.1901 -0.1692,0.2025 -0.17,0.215 -0.1706,0.2281 -0.171,0.2413 -0.1713,0.2549 -0.1713,0.2687 -0.1712,0.2829 h -10e-5 l -10e-5,10e-5 -10e-5,10e-5 h -10e-5 l -10e-5,10e-5 -10e-5,10e-5 -10e-5,10e-5 -10e-5,2e-4 -10e-5,10e-5 -1e-4,10e-5 -2e-4,2e-4 -10e-5,2e-4 -10e-5,10e-5 -10e-5,2e-4 -10e-5,2e-4 -10e-5,2e-4 -10e-5,2e-4 -2e-4,2e-4 -10e-5,2e-4 -10e-5,2e-4 -10e-5,2e-4 v 2e-4 l -10e-5,2e-4 -1e-4,2e-4 -10e-5,10e-5 v 2e-4 l -10e-5,10e-5 v 10e-5 l -10e-5,2e-4 v 10e-5 l -10e-5,1e-4 v 2e-4 l -10e-5,10e-5 v 10e-5 l -10e-5,2e-4 v 10e-5 l -10e-5,10e-5 v 2e-4 l -10e-5,10e-5 v 10e-5 l -10e-5,2e-4 v 1e-4 l -10e-5,10e-5 -10e-5,2e-4 v 10e-5 l -10e-5,10e-5 v 2e-4 l -10e-5,10e-5 -0.0842,0.1534 -0.0858,0.1608 -0.0871,0.1682 -0.0882,0.1757 -0.089,0.1832 -0.0898,0.1906 -0.0902,0.1982 -0.0905,0.2056 -0.0906,0.2131 -0.0905,0.2207 -0.0902,0.2282 -0.0897,0.2358 -0.089,0.2435 -0.0882,0.2511 -0.0871,0.2588 -0.086,0.2665 -0.0845,0.2744 -0.083,0.2822 -0.0813,0.2901 -0.0795,0.2981 -0.0773,0.3061 -0.0752,0.3143 -0.0729,0.3225 -0.0703,0.3309 0.1078,0.3945 0.1083,0.3966 0.109,0.3987 0.1095,0.4008 0.11,0.4029 0.1107,0.4051 0.1112,0.4072 0.1119,0.4094 0.1124,0.4116 0.113,0.4138 0.1137,0.416 0.1143,0.4183 0.1148,0.4205 0.1155,0.4228 0.1162,0.4251 0.1167,0.4275 0.1175,0.4297 0.118,0.4322 0.1187,0.4345 0.1194,0.4369 0.12,0.4393 0.1206,0.4417 0.1214,0.4442 0.122,0.4467 -0.028,-0.1186 -0.0244,-0.1233 -0.0211,-0.1277 -0.018,-0.1318 -0.015,-0.1355 -0.0124,-0.139 -0.01,-0.1422 -0.0077,-0.1448 -0.0057,-0.1474 -0.0039,-0.1495 -0.0024,-0.1513 -0.001,-0.1527 10e-5,-0.1539 0.001,-0.1547 0.0017,-0.1551 0.0022,-0.1552 0.0024,-0.1549 0.0025,-0.1544 0.0023,-0.1534 0.0019,-0.1521 0.0012,-0.1504 4e-4,-0.1483 -6e-4,-0.146 -0.0019,-0.1432 -5e-4,-0.2371 0.0073,-0.2269 0.0145,-0.2173 0.0215,-0.2086 0.028,-0.2005 0.0341,-0.193 0.0398,-0.1862 0.0451,-0.1801 0.05,-0.1747 0.0546,-0.1697 0.0588,-0.1655 0.0624,-0.162 0.0659,-0.1589 0.0688,-0.1565 0.0713,-0.1548 0.0735,-0.1536 0.0752,-0.1531 0.0765,-0.1531 0.0774,-0.1538 0.0778,-0.155 0.0778,-0.1568 0.0774,-0.1593 0.0765,-0.1623 0.0752,-0.166 0.0684,-0.1491 0.075,-0.154 0.0807,-0.1586 0.0856,-0.1625 0.0896,-0.1661 0.0926,-0.1692 0.0948,-0.1716 0.096,-0.1736 0.0963,-0.175 0.0955,-0.1759 0.0939,-0.176 0.0913,-0.1757 0.0876,-0.1747 0.0828,-0.1731 0.0771,-0.1706 0.0704,-0.1677 0.0625,-0.1638 0.0536,-0.1595 0.0437,-0.1542 0.0327,-0.1483 0.0206,-0.1416 0.0076,-0.1341 -0.0065,-0.1259 -0.0215,-0.117 0.2712,-0.0452 0.2743,-0.0457 0.2776,-0.0463 0.2808,-0.0468 0.2842,-0.0474 0.2876,-0.0479 0.2911,-0.0485 0.2946,-0.0491 0.2982,-0.0497 0.3018,-0.0503 0.3056,-0.051 0.3094,-0.0515 0.3133,-0.0522 0.3171,-0.0529 0.3212,-0.0535 0.3253,-0.0542 0.3295,-0.0549 0.3337,-0.0557 0.3381,-0.0563 0.3425,-0.0571 0.3469,-0.0578 0.3516,-0.0586 0.3563,-0.0594 0.3611,-0.0602 L 27.5649,23.2335 27.4857,22.9962 27.404,22.7644 27.32,22.538 27.2336,22.3168 27.145,22.1006 27.0544,21.8894 26.9618,21.683 26.8674,21.4811 26.7713,21.2838 26.6736,21.0908 26.5743,20.9019 26.4736,20.7171 26.3717,20.5362 26.2685,20.3589 26.1643,20.1853 26.059,20.015 25.9529,19.848 25.8459,19.6841 25.7383,19.523 25.6301,19.3648 25.5214,19.2092 25.4123,19.0561 25.3028,18.9052 25.0439,18.5943 24.7864,18.3131 24.531,18.06 24.278,17.8337 24.0282,17.6327 23.7818,17.4555 23.5395,17.3007 23.3017,17.167 23.0687,17.0529 22.8412,16.9572 22.6193,16.8785 22.4036,16.8156 22.1943,16.7672 21.992,16.732 l -0.1951,-0.023 -0.1876,-0.0122 -0.1796,-0.0024 -0.1714,0.0062 -0.1628,0.0138 -0.154,0.0203 -0.1447,0.0256 -0.1351,0.0301 -0.1253,0.0334 z"
           id="path1228" />
        <path
           style="fill:#a2c2fa"
           d="m 27.6415,23.4728 -0.3447,0.0578 -0.3402,0.057 -0.336,0.0563 -0.3317,0.0556 -0.3277,0.0549 -0.3236,0.0543 -0.3196,0.0535 -0.3158,0.053 -0.3119,0.0522 -0.3082,0.0517 -0.3044,0.051 -0.3009,0.0504 -0.2973,0.0499 -0.2938,0.0492 -0.2904,0.0487 -0.287,0.0481 -0.2836,0.0475 -0.2805,0.047 -0.2772,0.0465 -0.274,0.0459 -0.271,0.0454 -0.268,0.0449 -0.2649,0.0444 -0.262,0.0439 0.0666,-0.002 0.0668,0.0084 0.067,0.018 0.0671,0.027 0.0673,0.0356 0.0674,0.0433 0.0675,0.0506 0.0676,0.0571 0.0677,0.063 0.0677,0.0683 0.0677,0.073 0.0678,0.0769 0.0677,0.0802 0.0678,0.0829 0.0677,0.085 0.0676,0.0862 0.0675,0.087 0.0674,0.0869 0.0674,0.0863 0.0671,0.0849 0.067,0.0829 0.0668,0.0801 0.0666,0.0767 0.0664,0.0725 0.1084,0.1262 0.099,0.1384 0.0901,0.15 0.0816,0.1611 0.0737,0.1714 0.0662,0.1812 0.0591,0.1903 0.0528,0.1987 0.0467,0.2065 0.0414,0.2137 0.0365,0.2201 0.0322,0.2259 0.0284,0.2312 0.0253,0.2357 0.0226,0.2396 0.0205,0.243 0.0191,0.2457 0.0181,0.2478 0.0178,0.2493 0.0179,0.2503 0.0188,0.2506 0.0202,0.2505 0.0222,0.2498 0.0246,0.2485 0.0272,0.2132 0.0352,0.2081 0.0422,0.2034 0.0483,0.1993 0.0533,0.1958 0.0573,0.1926 0.0603,0.1901 0.0622,0.1879 0.0632,0.1862 0.063,0.1849 0.0617,0.1841 0.0595,0.1837 0.0561,0.1836 0.0516,0.184 0.046,0.1846 0.0394,0.1858 0.0315,0.1871 0.0227,0.1888 0.0126,0.1909 0.0016,0.1931 -0.0106,0.1957 -0.0238,0.1985 -0.0381,0.2016 -0.0534,0.2047 -0.1769,0.5399 -0.1756,0.5361 -0.1744,0.5323 -0.1732,0.5286 -0.172,0.525 -0.1708,0.5213 -0.1696,0.5178 -0.1685,0.5142 -0.1673,0.5107 -0.1662,0.5072 -0.165,0.5038 -0.164,0.5003 -0.1628,0.497 -0.1617,0.4937 -0.1607,0.4903 -0.1595,0.4871 -0.1586,0.4839 -0.1574,0.4806 -0.1565,0.4774 -0.1553,0.4744 -0.1544,0.4712 -0.1534,0.4681 -0.1524,0.465 -0.1513,0.4621 0.0052,0.0023 0.0052,0.0023 0.0052,0.0022 0.0052,0.0023 0.0052,0.0022 0.0051,0.0023 0.0052,0.0022 0.0052,0.0022 0.0052,0.0022 0.0051,0.0021 0.0052,0.0022 0.0052,0.0022 0.0051,0.0021 0.0052,0.0021 0.0051,0.0022 0.0052,0.0021 0.0051,0.0021 0.0052,0.0021 0.0051,0.0021 0.0052,0.0022 0.0051,0.0021 0.0052,0.0021 0.0051,0.0021 0.0052,0.0021 0.3355,0.1243 0.3384,0.0921 0.3409,0.0593 0.343,0.0264 0.3444,-0.0071 0.3454,-0.041 0.3458,-0.0751 0.3456,-0.1096 0.3448,-0.1446 0.3432,-0.1798 0.3411,-0.2153 0.3381,-0.2511 0.3344,-0.2872 0.33,-0.3234 0.3247,-0.3598 0.3186,-0.3963 0.3115,-0.4328 0.3036,-0.4693 0.2947,-0.5058 0.2849,-0.542 0.2742,-0.578 0.2624,-0.6136 0.2496,-0.649 0.2358,-0.6836 0.103,-0.3262 0.0992,-0.3324 0.0954,-0.3386 0.0916,-0.3443 0.0877,-0.3498 0.0837,-0.3552 0.0796,-0.3602 0.0755,-0.3649 0.0713,-0.3694 0.067,-0.3737 0.0628,-0.3776 0.0584,-0.3812 0.054,-0.3846 0.0495,-0.3877 0.0451,-0.3904 0.0404,-0.393 0.0359,-0.3951 0.0311,-0.397 0.0265,-0.3986 0.0218,-0.3998 0.017,-0.4008 0.0121,-0.4014 L 28.9976,32.8 29,32.3983 v -4e-4 -3e-4 -3e-4 -3e-4 -3e-4 -3e-4 -3e-4 -3e-4 -3e-4 -3e-4 -3e-4 -3e-4 -4e-4 -3e-4 -3e-4 -3e-4 -3e-4 -3e-4 -3e-4 -3e-4 -3e-4 -3e-4 -3e-4 -3e-4 l -10e-5,-0.0521 -3e-4,-0.0519 -4e-4,-0.0519 -6e-4,-0.0519 -8e-4,-0.0518 -8e-4,-0.0517 L 28.996,32.0278 28.9949,31.9761 28.9937,31.9244 28.9924,31.8727 28.991,31.821 28.9896,31.7694 28.9881,31.7177 28.9866,31.6661 28.9851,31.6144 28.9836,31.5627 28.982,31.5111 28.9805,31.4593 28.979,31.4076 28.9775,31.3558 28.9761,31.304 l -0.0013,-0.0518 -0.0013,-0.0519 -0.0012,-0.052 -0.0166,-0.3469 -0.0202,-0.3456 -0.0237,-0.3442 -0.0273,-0.3426 -0.0308,-0.3409 -0.0343,-0.339 -0.0378,-0.3369 -0.0412,-0.3348 -0.0446,-0.3324 -0.048,-0.33 -0.0513,-0.3273 -0.0547,-0.3245 -0.0579,-0.3217 -0.0612,-0.3186 -0.0643,-0.3154 -0.0676,-0.3122 -0.0706,-0.3086 -0.0738,-0.3051 -0.0768,-0.3015 -0.0798,-0.2975 -0.0827,-0.2937 -0.0857,-0.2896 -0.0886,-0.2854 z"
           id="path1230" />
        <path
           style="opacity:0.2;fill:#ffffff"
           d="m 20.3281,16.8906 -0.4737,0.191 -0.4622,0.2519 -0.4493,0.3099 -0.4349,0.3651 -0.4193,0.4174 -0.4026,0.4666 -0.385,0.5128 -0.3663,0.5562 -0.347,0.5964 -0.327,0.634 -0.3064,0.6685 -0.2853,0.7003 -0.2638,0.7293 -0.2418,0.7556 -0.2196,0.7794 -0.1971,0.8005 -0.1744,0.8192 -0.1515,0.8354 -0.1284,0.8491 -0.1052,0.8606 -0.0819,0.8696 -0.0585,0.8765 -0.0352,0.8809 L 14,32.5 l 10e-5,0.0165 2e-4,0.0165 1e-4,0.0165 2e-4,0.0164 10e-5,0.0165 2e-4,0.0165 2e-4,0.0165 2e-4,0.0165 2e-4,0.0165 2e-4,0.0164 2e-4,0.0165 2e-4,0.0165 2e-4,0.0165 3e-4,0.0165 2e-4,0.0165 3e-4,0.0164 2e-4,0.0165 3e-4,0.0165 3e-4,0.0165 2e-4,0.0165 3e-4,0.0164 3e-4,0.0165 3e-4,0.0165 4e-4,0.0165 0.0187,-0.8705 0.0415,-0.8672 0.0643,-0.8618 0.087,-0.8543 0.1096,-0.8444 0.1321,-0.8323 0.1546,-0.8181 0.1769,-0.8014 0.1989,-0.7824 0.2207,-0.7609 0.2424,-0.7371 0.2636,-0.7107 0.2845,-0.6816 0.305,-0.6501 0.325,-0.6157 0.3444,-0.5786 0.3631,-0.5388 0.3811,-0.4962 0.3983,-0.4506 0.4145,-0.4023 0.4296,-0.3511 0.4435,-0.2971 0.4562,-0.2404 0.4672,-0.1809 0.4743,-0.1171 0.4818,-0.0534 0.4877,0.0126 0.4915,0.0804 0.4931,0.1502 0.4924,0.2212 0.4892,0.2933 0.4836,0.3661 0.4753,0.4392 0.4642,0.5119 0.4503,0.5839 0.4336,0.6546 0.4139,0.7233 0.3915,0.7896 0.3662,0.8526 0.3383,0.912 0.3077,0.9669 0.2748,1.0168 0.2397,1.0613 0.2026,1.0996 0.1638,1.1315 0.1236,1.1565 0.0824,1.1743 0.0404,1.1845 5e-4,-0.0159 5e-4,-0.0159 5e-4,-0.016 5e-4,-0.0159 5e-4,-0.016 4e-4,-0.0159 5e-4,-0.016 4e-4,-0.0159 5e-4,-0.016 4e-4,-0.016 4e-4,-0.0159 5e-4,-0.016 4e-4,-0.0159 4e-4,-0.016 4e-4,-0.0159 4e-4,-0.016 4e-4,-0.016 3e-4,-0.0159 4e-4,-0.016 4e-4,-0.0159 3e-4,-0.016 4e-4,-0.016 3e-4,-0.0159 L 29,32.5 28.978,31.2905 28.9123,30.0891 28.8033,28.9036 28.652,27.7419 28.4599,26.6112 28.2286,25.5188 27.96,24.471 27.6564,23.4739 27.3203,22.533 l -0.3659,-0.88 -0.3928,-0.815 -0.417,-0.7465 -0.438,-0.6752 -0.456,-0.6018 -0.471,-0.527 -0.483,-0.4512 -0.492,-0.3752 -0.4983,-0.2994 -0.5018,-0.2243 -0.5028,-0.1503 -0.5012,-0.0779 -0.4974,-0.0072 -0.4915,0.0612 -0.4834,0.1274 v 0 0 h -10e-5 v 0 0 z"
           id="path1232" />
        <path
           style="opacity:0.2"
           d="m 24.2966,33.3466 -0.0164,0.7374 -0.0489,0.7298 -0.0809,0.7153 -0.1121,0.6941 -0.1418,0.6665 -0.1701,0.6329 -0.1966,0.5939 -0.2207,0.5498 -0.2428,0.5012 -0.2622,0.4491 -0.2791,0.3936 -0.2933,0.3358 -0.3047,0.2761 -0.3133,0.2152 -0.3192,0.1536 -0.3224,0.0921 -0.3229,0.0311 -0.3211,-0.0289 -0.3167,-0.0876 -0.3101,-0.1443 -0.3013,-0.199 -0.2906,-0.251 -0.278,-0.3004 -0.2637,-0.3468 -0.248,-0.3901 -0.2307,-0.43 -0.2124,-0.4666 -0.1928,-0.4995 -0.1722,-0.529 -0.151,-0.5548 -0.1289,-0.5769 -0.1063,-0.5953 -0.0831,-0.6099 -0.0596,-0.6208 -0.0359,-0.628 -0.012,-0.6313 0.012,-0.6309 0.0359,-0.6267 0.0596,-0.6189 0.0831,-0.6071 0.1063,-0.5917 0.1289,-0.5726 0.151,-0.5498 0.1722,-0.5233 0.1928,-0.4931 0.2124,-0.4595 0.2307,-0.4223 0.248,-0.3818 0.2637,-0.338 0.278,-0.2912 0.2906,-0.2413 0.3013,-0.1889 0.3101,-0.134 0.3167,-0.077 0.3211,-0.0183 0.3229,0.0419 0.3224,0.1028 0.3192,0.1643 0.3133,0.2256 0.3047,0.2863 0.2933,0.3455 0.2791,0.403 0.2622,0.4578 0.2428,0.5093 0.2207,0.5572 0.1966,0.6004 0.1701,0.6386 0.1418,0.6713 0.1121,0.6978 0.0809,0.718 0.0489,0.7314 z"
           id="circle1234" />
        <path
           style="fill:#ffffff"
           d="m 24.2966,32.5 -0.0164,0.7376 -0.0489,0.7306 -0.0809,0.7167 -0.1121,0.696 -0.1418,0.6688 -0.1701,0.6358 -0.1966,0.5972 -0.2207,0.5534 -0.2428,0.5053 -0.2622,0.4535 -0.2791,0.3983 -0.2933,0.3406 -0.3047,0.2812 -0.3133,0.2204 -0.3192,0.1589 -0.3224,0.0975 -0.3229,0.0365 L 20.3281,40.3047 20.0114,40.2224 19.7013,40.0832 19.4,39.8893 19.1094,39.6431 18.8314,39.3474 18.5677,39.005 18.3197,38.619 18.089,38.1929 17.8766,37.7298 17.6838,37.2335 17.5116,36.7073 17.3606,36.155 17.2317,35.5803 17.1254,34.9868 17.0423,34.3783 16.9827,33.7584 16.9468,33.1311 16.9348,32.5 l 0.012,-0.6311 0.0359,-0.6273 0.0596,-0.6199 0.0831,-0.6085 0.1063,-0.5935 0.1289,-0.5747 0.151,-0.5523 0.1722,-0.5262 0.1928,-0.4963 0.2124,-0.4631 0.2307,-0.4261 0.248,-0.386 0.2637,-0.3424 0.278,-0.2957 0.2906,-0.2462 0.3013,-0.1939 0.3101,-0.1392 0.3167,-0.0823 0.3211,-0.0236 0.3229,0.0365 0.3224,0.0975 0.3192,0.1589 0.3133,0.2204 0.3047,0.2812 0.2933,0.3406 0.2791,0.3983 0.2622,0.4535 0.2428,0.5053 0.2207,0.5534 0.1966,0.5972 0.1701,0.6358 0.1418,0.6688 0.1121,0.696 0.0809,0.7167 0.0489,0.7306 z"
           id="circle1236" />
        <path
           style="fill:#4688f4"
           d="m 23.45,32.5 -0.0127,0.5803 -0.0378,0.575 -0.0627,0.5645 -0.0868,0.5489 -0.1101,0.5285 -0.1321,0.5033 -0.1528,0.474 -0.1721,0.4407 -0.1896,0.4039 -0.2051,0.3641 -0.2189,0.3215 -0.2306,0.277 -0.2401,0.2306 -0.2476,0.1831 -0.2529,0.1348 -0.2562,0.0862 -0.2573,0.0377 -0.2565,-0.0104 -0.2537,-0.0574 -0.249,-0.1034 -0.2427,-0.1479 -0.2346,-0.1906 -0.225,-0.2313 -0.214,-0.2697 -0.2016,-0.3058 -0.188,-0.3393 L 18.3462,36.7281 18.1885,36.33 18.0474,35.9068 17.9236,35.4616 17.8178,34.9973 17.7304,34.517 17.662,34.024 17.613,33.5214 17.5834,33.0123 17.5735,32.5 l 0.0099,-0.5123 0.0296,-0.5091 0.049,-0.5026 0.0684,-0.493 0.0874,-0.4803 0.1058,-0.4643 0.1238,-0.4452 0.1411,-0.4232 0.1577,-0.3981 0.1733,-0.3702 0.188,-0.3393 0.2016,-0.3058 0.214,-0.2697 0.225,-0.2313 0.2346,-0.1906 0.2427,-0.1479 0.249,-0.1034 0.2537,-0.0575 0.2565,-0.0103 0.2573,0.0377 0.2562,0.0862 0.2529,0.1348 0.2476,0.1831 0.2401,0.2306 0.2306,0.277 0.2189,0.3215 0.2051,0.3641 0.1896,0.4039 0.1721,0.4407 0.1528,0.474 0.1321,0.5033 0.1101,0.5285 0.0868,0.5489 0.0627,0.5645 0.0378,0.575 z"
           id="circle1238" />
      </g>
    </g>
  </g>
</svg>
