<?xml version="1.0" encoding="UTF-8" standalone="no"?>
<svg
   width="64"
   height="64"
   version="1"
   id="svg12"
   sodipodi:docname="wrapweb.svg"
   inkscape:version="1.2.2 (b0a8486541, 2022-12-01)"
   xmlns:inkscape="http://www.inkscape.org/namespaces/inkscape"
   xmlns:sodipodi="http://sodipodi.sourceforge.net/DTD/sodipodi-0.dtd"
   xmlns="http://www.w3.org/2000/svg"
   xmlns:svg="http://www.w3.org/2000/svg">
  <defs
     id="defs16" />
  <sodipodi:namedview
     id="namedview14"
     pagecolor="#ffffff"
     bordercolor="#000000"
     borderopacity="0.25"
     inkscape:showpageshadow="2"
     inkscape:pageopacity="0.0"
     inkscape:pagecheckerboard="0"
     inkscape:deskcolor="#d1d1d1"
     showgrid="false"
     inkscape:zoom="20.85965"
     inkscape:cx="36.14634"
     inkscape:cy="36.410007"
     inkscape:window-width="2560"
     inkscape:window-height="1367"
     inkscape:window-x="0"
     inkscape:window-y="0"
     inkscape:window-maximized="1"
     inkscape:current-layer="svg12" />
  <rect
     style="opacity:0.2"
     width="56"
     height="56"
     x="5.3050847"
     y="5.0370765"
     rx="16.799999"
     ry="16.799999"
     id="rect2" />
  <rect
     style="fill:#494c60;fill-opacity:1"
     width="56"
     height="56"
     x="4"
     y="4"
     rx="16.8"
     ry="16.8"
     id="rect4" />
  <path
     style="fill:#ffffff;opacity:0.1"
     d="M 20.801 4 C 11.494 4 4 11.494 4 20.801 L 4 21.801 C 4 12.494 11.494 5 20.801 5 L 43.199 5 C 52.506 5 60 12.494 60 21.801 L 60 20.801 C 60 11.494 52.506 4 43.199 4 L 20.801 4 z"
     id="path10" />
  <path
     style="opacity:0.1;stroke-width:1.18908"
     d="m 30.085693,11.264292 -17.807837,5.954795 v 32.155895 l 17.807837,5.954795 z m 9.497513,3.572877 -7.123135,2.381918 v 32.155895 l 7.123135,2.381918 z m 8.310324,3.572878 -5.935946,2.381918 v 25.010139 l 5.935946,2.381919 z m 7.123135,5.954795 -4.748757,1.190959 v 15.482467 l 4.748757,1.19096 z"
     id="path6" />
  <path
     style="fill:#888a85;fill-opacity:1;stroke-width:1.18908"
     d="m 55.016665,23.173883 -4.748757,1.190959 V 39.84731 l 4.748757,1.190958 z"
     id="path2188" />
  <path
     style="fill:#babdb6;fill-opacity:1;stroke-width:1.18908"
     d="m 47.89353,17.219087 -5.935946,2.381918 v 25.01014 l 5.935946,2.381919 z"
     id="path2186" />
  <path
     style="fill:#eeeeec;fill-opacity:1;stroke:#eeeeec;stroke-width:1.87095;stroke-linejoin:round;stroke-dasharray:none;stroke-opacity:1"
     d="m 40.050249,13.635819 -6.963563,2.383259 v 32.173996 l 6.963563,2.383258 z"
     id="path2184" />
  <path
     style="fill:#000000;fill-opacity:0.594417;stroke:#494949;stroke-width:2.8376;stroke-linejoin:round;stroke-dasharray:none;stroke-opacity:0.32068747"
     d="M 30.033603,11.089855 12.225766,17.044651 V 49.200545 L 30.033603,55.15534 Z"
     id="path8-3" />
  <path
     style="fill:#ffffff;fill-opacity:1;stroke:#ffffff;stroke-width:2.8376;stroke-linejoin:round;stroke-dasharray:none;stroke-opacity:1"
     d="m 30.085693,10.073333 -17.807837,5.954796 v 32.155894 l 17.807837,5.954795 z"
     id="path8" />
  <path
     style="opacity:0.2"
     d="M 19.6514 14.8521 L 18.9313 15.1226 L 18.2332 15.5178 L 17.5614 16.0306 L 16.9196 16.6538 L 16.3110 17.3795 L 15.7385 18.1999 L 15.2046 19.1074 L 14.7113 20.0939 L 14.2606 21.1518 L 13.8539 22.2735 L 13.4924 23.4514 L 13.1773 24.6781 L 12.9094 25.9464 L 12.6893 27.2493 L 12.5176 28.5798 L 12.3947 29.9309 L 12.3208 31.2960 L 12.2962 32.6683 L 12.3208 34.0410 L 12.3947 35.4077 L 12.5176 36.7614 L 12.6893 38.0954 L 12.9094 39.4029 L 13.1773 40.6768 L 13.4924 41.9101 L 13.8539 43.0956 L 14.2606 44.2257 L 14.7113 45.2931 L 15.2046 46.2899 L 15.7385 47.2085 L 16.3110 48.0410 L 16.9196 48.7794 L 17.5614 49.4159 L 18.2332 49.9428 L 18.9313 50.3526 L 19.6514 50.6381 L 20.3889 50.7927 L 21.1386 50.8103 L 21.8947 50.6859 L 22.6512 50.4152 L 23.4015 49.9953 L 24.1385 49.4248 L 24.8550 48.7038 L 25.5434 47.8341 L 26.1961 46.8198 L 26.8054 45.6668 L 27.3639 44.3831 L 27.8645 42.9790 L 28.3006 41.4669 L 28.6661 39.8612 L 28.9561 38.1780 L 29.1663 36.4351 L 29.2936 34.6512 L 29.3363 32.8463 L 29.2936 31.0405 L 29.1663 29.2540 L 28.9561 27.5067 L 28.6661 25.8174 L 28.3006 24.2041 L 27.8645 22.6829 L 27.3639 21.2684 L 26.8054 19.9730 L 26.1961 18.8072 L 25.5434 17.7792 L 24.8550 16.8952 L 24.1385 16.1592 L 23.4015 15.5733 L 22.6512 15.1377 L 21.8947 14.8512 L 21.1386 14.7110 L 20.3889 14.7129 L 19.6514 14.8521 Z"
     id="electron_p0" />
  <path
     style="fill:#494c60"
     d="M 19.6514 14.2131 L 18.9313 14.4911 L 18.2332 14.8936 L 17.5614 15.4134 L 16.9196 16.0433 L 16.3110 16.7753 L 15.7385 17.6018 L 15.2046 18.5148 L 14.7113 19.5065 L 14.2606 20.5691 L 13.8539 21.6951 L 13.4924 22.8767 L 13.1773 24.1067 L 12.9094 25.3779 L 12.6893 26.6830 L 12.5176 28.0153 L 12.3947 29.3677 L 12.3208 30.7335 L 12.2962 32.1061 L 12.3208 33.4786 L 12.3947 34.8445 L 12.5176 36.1969 L 12.6893 37.5291 L 12.9094 38.8343 L 13.1773 40.1054 L 13.4924 41.3354 L 13.8539 42.5171 L 14.2606 43.6430 L 14.7113 44.7056 L 15.2046 45.6974 L 15.7385 46.6104 L 16.3110 47.4368 L 16.9196 48.1689 L 17.5614 48.7987 L 18.2332 49.3186 L 18.9313 49.7211 L 19.6514 49.9991 L 20.3889 50.1459 L 21.1386 50.1558 L 21.8947 50.0234 L 22.6512 49.7448 L 23.4015 49.3171 L 24.1385 48.7389 L 24.8550 48.0104 L 25.5434 47.1335 L 26.1961 46.1124 L 26.8054 44.9530 L 27.3639 43.6634 L 27.8645 42.2541 L 28.3006 40.7375 L 28.6661 39.1280 L 28.9561 37.4418 L 29.1663 35.6966 L 29.2936 33.9114 L 29.3363 32.1061 L 29.2936 30.3007 L 29.1663 28.5156 L 28.9561 26.7704 L 28.6661 25.0842 L 28.3006 23.4747 L 27.8645 21.9580 L 27.3639 20.5487 L 26.8054 19.2592 L 26.1961 18.0998 L 25.5434 17.0786 L 24.8550 16.2018 L 24.1385 15.4733 L 23.4015 14.8951 L 22.6512 14.4674 L 21.8947 14.1888 L 21.1386 14.0564 L 20.3889 14.0662 L 19.6514 14.2131 Z"
     id="electron_p1" />
  <path
     style="opacity:0.2"
     d="M 19.9727 18.6169 L 19.9692 18.6175 L 19.9656 18.6181 L 19.9621 18.6188 L 19.9585 18.6195 L 19.9550 18.6202 L 19.9515 18.6209 L 19.9479 18.6217 L 19.9444 18.6225 L 19.9409 18.6234 L 19.9373 18.6242 L 19.9338 18.6251 L 19.9303 18.6260 L 19.9267 18.6270 L 19.9232 18.6279 L 19.9197 18.6290 L 19.9162 18.6300 L 19.9126 18.6311 L 19.9091 18.6322 L 19.8591 18.6511 L 19.8095 18.6759 L 19.7603 18.7063 L 19.7119 18.7424 L 19.6642 18.7840 L 19.6176 18.8309 L 19.5720 18.8830 L 19.5276 18.9401 L 19.4846 19.0021 L 19.4431 19.0687 L 19.4032 19.1398 L 19.3650 19.2150 L 19.3287 19.2942 L 19.2943 19.3772 L 19.2619 19.4637 L 19.2317 19.5533 L 19.2037 19.6459 L 19.1780 19.7412 L 19.1425 19.8955 L 19.1132 20.0546 L 19.0901 20.2172 L 19.0735 20.3822 L 19.0635 20.5483 L 19.0601 20.7144 L 19.0635 20.8792 L 19.0735 21.0416 L 19.0901 21.2003 L 19.1131 21.3542 L 19.1425 21.5022 L 19.1780 21.6432 L 19.2194 21.7761 L 19.2663 21.9000 L 19.3185 22.0139 L 19.3755 22.1169 L 19.4370 22.2083 L 19.5025 22.2873 L 19.5495 22.3339 L 19.5981 22.3743 L 19.6479 22.4082 L 19.6990 22.4355 L 19.7510 22.4561 L 19.8038 22.4699 L 19.8573 22.4768 L 19.9112 22.4769 L 19.9653 22.4700 L 20.0195 22.4563 L 20.0735 22.4356 L 20.1271 22.4081 L 20.1803 22.3739 L 20.2326 22.3330 L 20.2841 22.2857 L 20.3345 22.2319 L 20.3835 22.1721 L 20.4311 22.1062 L 20.4772 22.2068 L 20.5230 22.3107 L 20.5684 22.4180 L 20.6134 22.5286 L 20.6579 22.6425 L 20.7020 22.7596 L 20.7456 22.8799 L 20.7888 23.0033 L 20.8315 23.1299 L 20.8737 23.2596 L 20.9155 23.3924 L 20.9567 23.5281 L 20.9974 23.6669 L 21.0376 23.8086 L 21.0772 23.9532 L 21.1163 24.1007 L 21.1548 24.2511 L 21.1928 24.4042 L 20.9961 24.5699 L 20.7992 24.7445 L 20.6022 24.9275 L 20.4054 25.1186 L 20.2090 25.3175 L 20.0134 25.5238 L 19.8186 25.7372 L 19.6250 25.9573 L 19.4326 26.1838 L 19.2418 26.4164 L 19.0527 26.6548 L 18.8656 26.8988 L 18.6805 27.1479 L 18.4978 27.4020 L 18.3175 27.6607 L 18.1398 27.9238 L 17.9650 28.1910 L 17.7932 28.4621 L 17.6853 28.6393 L 17.5800 28.8203 L 17.4774 29.0050 L 17.3774 29.1932 L 17.2799 29.3848 L 17.1851 29.5796 L 17.0927 29.7773 L 17.0028 29.9780 L 16.9154 30.1813 L 16.8304 30.3872 L 16.7478 30.5956 L 16.6676 30.8061 L 16.5898 31.0188 L 16.5142 31.2334 L 16.4410 31.4498 L 16.3700 31.6678 L 16.3013 31.8874 L 16.2348 32.1083 L 16.2320 32.1005 L 16.2292 32.0928 L 16.2263 32.0850 L 16.2234 32.0773 L 16.2205 32.0696 L 16.2176 32.0619 L 16.2146 32.0542 L 16.2117 32.0466 L 16.2087 32.0389 L 16.2058 32.0312 L 16.2028 32.0235 L 16.1999 32.0159 L 16.1970 32.0082 L 16.1941 32.0004 L 16.1912 31.9927 L 16.1884 31.9850 L 16.1856 31.9772 L 16.1829 31.9694 L 16.0561 31.5902 L 15.9384 31.2103 L 15.8299 30.8307 L 15.7306 30.4524 L 15.6406 30.0763 L 15.5599 29.7034 L 15.4886 29.3346 L 15.4269 28.9709 L 15.3747 28.6132 L 15.3322 28.2624 L 15.2995 27.9194 L 15.2768 27.5852 L 15.2641 27.2608 L 15.2615 26.9469 L 15.2693 26.6447 L 15.2876 26.3551 L 15.3165 26.0790 L 15.3563 25.8174 L 15.3803 25.6896 L 15.4053 25.5695 L 15.4312 25.4568 L 15.4582 25.3511 L 15.4861 25.2523 L 15.5151 25.1600 L 15.5450 25.0739 L 15.5759 24.9938 L 15.6079 24.9194 L 15.6408 24.8504 L 15.6747 24.7865 L 15.7096 24.7275 L 15.7455 24.6729 L 15.7824 24.6227 L 15.8203 24.5764 L 15.8592 24.5338 L 15.8991 24.4946 L 15.9400 24.4586 L 15.9820 24.4258 L 16.0252 24.3966 L 16.0695 24.3709 L 16.1147 24.3487 L 16.1610 24.3297 L 16.2082 24.3141 L 16.2561 24.3017 L 16.3049 24.2924 L 16.3543 24.2862 L 16.4043 24.2829 L 16.4549 24.2826 L 16.5060 24.2851 L 16.5575 24.2904 L 16.6094 24.2984 L 16.6615 24.3090 L 16.7138 24.3222 L 16.7662 24.3378 L 16.8187 24.3559 L 16.9233 24.3985 L 17.0267 24.4485 L 17.1283 24.5050 L 17.2275 24.5666 L 17.3239 24.6322 L 17.4167 24.7007 L 17.5056 24.7707 L 17.5898 24.8412 L 17.6687 24.9108 L 17.7419 24.9784 L 17.8087 25.0427 L 17.8684 25.1025 L 17.9206 25.1565 L 17.9646 25.2035 L 17.9998 25.2422 L 18.0257 25.2714 L 18.0417 25.2898 L 18.0471 25.2962 L 18.0915 25.3390 L 18.1390 25.3638 L 18.1883 25.3699 L 18.2379 25.3570 L 18.2862 25.3255 L 18.3317 25.2762 L 18.3732 25.2106 L 18.4092 25.1308 L 18.4387 25.0392 L 18.4607 24.9385 L 18.4747 24.8318 L 18.4800 24.7224 L 18.4767 24.6138 L 18.4647 24.5091 L 18.4444 24.4118 L 18.4166 24.3246 L 18.3819 24.2504 L 18.3416 24.1914 L 18.3356 24.1843 L 18.3180 24.1638 L 18.2894 24.1315 L 18.2503 24.0885 L 18.2013 24.0364 L 18.1430 23.9764 L 18.0760 23.9101 L 18.0009 23.8387 L 17.9184 23.7637 L 17.8289 23.6864 L 17.7332 23.6082 L 17.6318 23.5304 L 17.5253 23.4545 L 17.4143 23.3816 L 17.2993 23.3132 L 17.1811 23.2505 L 17.0600 23.1949 L 16.9367 23.1475 L 16.9056 23.1371 L 16.8744 23.1273 L 16.8430 23.1181 L 16.8114 23.1096 L 16.7798 23.1017 L 16.7481 23.0945 L 16.7163 23.0881 L 16.6843 23.0824 L 16.6523 23.0775 L 16.6202 23.0734 L 16.5881 23.0702 L 16.5559 23.0678 L 16.5237 23.0662 L 16.4914 23.0656 L 16.4590 23.0659 L 16.4267 23.0672 L 16.3943 23.0694 L 16.3619 23.0726 L 16.3296 23.0769 L 16.2972 23.0822 L 16.2648 23.0887 L 16.2325 23.0962 L 16.2002 23.1049 L 16.1679 23.1147 L 16.1357 23.1258 L 16.1035 23.1380 L 16.0714 23.1516 L 16.0393 23.1664 L 16.0073 23.1825 L 15.9754 23.2000 L 15.9435 23.2188 L 15.9117 23.2391 L 15.8800 23.2607 L 15.8484 23.2838 L 15.8169 23.3084 L 15.7855 23.3345 L 15.7233 23.3917 L 15.6618 23.4557 L 15.6012 23.5266 L 15.5418 23.6043 L 15.4834 23.6889 L 15.4264 23.7804 L 15.3708 23.8787 L 15.3167 23.9839 L 15.2642 24.0960 L 15.2135 24.2149 L 15.1646 24.3407 L 15.1177 24.4734 L 15.0729 24.6130 L 15.0303 24.7595 L 14.9899 24.9130 L 14.9520 25.0734 L 14.9166 25.2408 L 14.8838 25.4151 L 14.8270 25.7843 L 14.7851 26.1611 L 14.7576 26.5449 L 14.7440 26.9350 L 14.7438 27.3309 L 14.7566 27.7319 L 14.7818 28.1375 L 14.8192 28.5470 L 14.8681 28.9598 L 14.9284 29.3752 L 14.9994 29.7925 L 15.0809 30.2112 L 15.1725 30.6305 L 15.2738 31.0496 L 15.3845 31.4679 L 15.5041 31.8847 L 15.6323 32.2990 L 15.7687 32.7103 L 15.7779 32.7371 L 15.7873 32.7638 L 15.7968 32.7905 L 15.8064 32.8170 L 15.8161 32.8436 L 15.8258 32.8700 L 15.8356 32.8965 L 15.8455 32.9229 L 15.8554 32.9492 L 15.8654 32.9756 L 15.8754 33.0020 L 15.8854 33.0283 L 15.8954 33.0547 L 15.9054 33.0811 L 15.9154 33.1075 L 15.9253 33.1339 L 15.9353 33.1604 L 15.9452 33.1870 L 15.8875 33.4304 L 15.8324 33.6744 L 15.7798 33.9186 L 15.7297 34.1630 L 15.6821 34.4073 L 15.6369 34.6515 L 15.5941 34.8953 L 15.5538 35.1386 L 15.5158 35.3812 L 15.4802 35.6230 L 15.4469 35.8638 L 15.4160 36.1035 L 15.3874 36.3419 L 15.3611 36.5788 L 15.3372 36.8141 L 15.3154 37.0476 L 15.2960 37.2792 L 15.2788 37.5086 L 15.2251 37.5413 L 15.1729 37.5829 L 15.1224 37.6332 L 15.0738 37.6920 L 15.0274 37.7588 L 14.9835 37.8334 L 14.9422 37.9153 L 14.9038 38.0040 L 14.8685 38.0992 L 14.8363 38.2004 L 14.8076 38.3069 L 14.7824 38.4183 L 14.7608 38.5339 L 14.7430 38.6532 L 14.7291 38.7756 L 14.7190 38.9004 L 14.7129 39.0270 L 14.7108 39.1548 L 14.7137 39.3088 L 14.7223 39.4623 L 14.7367 39.6144 L 14.7565 39.7638 L 14.7819 39.9094 L 14.8124 40.0503 L 14.8481 40.1853 L 14.8885 40.3134 L 14.9334 40.4337 L 14.9825 40.5454 L 15.0355 40.6474 L 15.0919 40.7391 L 15.1513 40.8197 L 15.2133 40.8886 L 15.2775 40.9452 L 15.3434 40.9891 L 15.4104 41.0199 L 15.4781 41.0373 L 15.5459 41.0411 L 15.6134 41.0313 L 15.6801 41.0079 L 15.7453 40.9710 L 15.8087 40.9208 L 15.8696 40.8577 L 15.9277 40.7822 L 15.9824 40.6947 L 16.0334 40.5961 L 16.0801 40.4869 L 16.1223 40.3680 L 16.1597 40.2403 L 16.1918 40.1049 L 16.2184 39.9627 L 16.2393 39.8150 L 16.2544 39.6628 L 16.2635 39.5073 L 16.2665 39.3499 L 16.2649 39.2349 L 16.2600 39.1199 L 16.2519 39.0056 L 16.2407 38.8922 L 16.2264 38.7804 L 16.2091 38.6706 L 16.1887 38.5632 L 16.1655 38.4588 L 16.1395 38.3576 L 16.1109 38.2602 L 16.0797 38.1669 L 16.0461 38.0781 L 16.0102 37.9942 L 15.9722 37.9156 L 15.9323 37.8424 L 15.8905 37.7751 L 15.8472 37.7139 L 15.8024 37.6590 L 15.8178 37.4764 L 15.8347 37.2918 L 15.8533 37.1052 L 15.8736 36.9168 L 15.8955 36.7268 L 15.9192 36.5352 L 15.9445 36.3422 L 15.9714 36.1480 L 16.0001 35.9525 L 16.0305 35.7561 L 16.0627 35.5587 L 16.0965 35.3605 L 16.1321 35.1617 L 16.1694 34.9624 L 16.2085 34.7626 L 16.2493 34.5626 L 16.2920 34.3625 L 16.3364 34.1623 L 16.4747 34.4733 L 16.6180 34.7798 L 16.7660 35.0812 L 16.9188 35.3770 L 17.0763 35.6666 L 17.2384 35.9495 L 17.4050 36.2250 L 17.5760 36.4927 L 17.7514 36.7518 L 17.9310 37.0019 L 18.1149 37.2423 L 18.3029 37.4723 L 18.4949 37.6913 L 18.6908 37.8986 L 18.8907 38.0936 L 19.0942 38.2756 L 19.3015 38.4438 L 19.5123 38.5975 L 19.6413 38.6831 L 19.7710 38.7629 L 19.9014 38.8370 L 20.0325 38.9057 L 20.1642 38.9690 L 20.2963 39.0271 L 20.4289 39.0800 L 20.5618 39.1280 L 20.6950 39.1711 L 20.8283 39.2094 L 20.9618 39.2432 L 21.0953 39.2725 L 21.2287 39.2974 L 21.3620 39.3181 L 21.4951 39.3348 L 21.6278 39.3476 L 21.7601 39.3565 L 21.8919 39.3618 L 21.8820 39.4507 L 21.8720 39.5392 L 21.8618 39.6272 L 21.8515 39.7148 L 21.8410 39.8019 L 21.8304 39.8884 L 21.8197 39.9744 L 21.8087 40.0598 L 21.7976 40.1446 L 21.7863 40.2288 L 21.7749 40.3122 L 21.7632 40.3951 L 21.7514 40.4771 L 21.7393 40.5585 L 21.7270 40.6391 L 21.7146 40.7188 L 21.7019 40.7978 L 21.6889 40.8759 L 21.6542 41.0765 L 21.6183 41.2721 L 21.5813 41.4625 L 21.5432 41.6477 L 21.5040 41.8274 L 21.4638 42.0017 L 21.4226 42.1704 L 21.3804 42.3334 L 21.3373 42.4907 L 21.2932 42.6420 L 21.2483 42.7873 L 21.2025 42.9266 L 21.1559 43.0597 L 21.1085 43.1865 L 21.0603 43.3069 L 21.0114 43.4209 L 20.9618 43.5283 L 20.9115 43.6290 L 20.8607 43.7232 L 20.8096 43.8110 L 20.7580 43.8924 L 20.7059 43.9674 L 20.6532 44.0360 L 20.6000 44.0981 L 20.5461 44.1538 L 20.4915 44.2031 L 20.4361 44.2459 L 20.3799 44.2823 L 20.3228 44.3123 L 20.2648 44.3357 L 20.2058 44.3528 L 20.1458 44.3633 L 20.0847 44.3674 L 20.0225 44.3651 L 19.9590 44.3562 L 19.8944 44.3409 L 19.7543 44.2939 L 19.6214 44.2350 L 19.4956 44.1650 L 19.3765 44.0848 L 19.2640 43.9951 L 19.1576 43.8967 L 19.0572 43.7903 L 18.9625 43.6768 L 18.8733 43.5568 L 18.7894 43.4310 L 18.7104 43.3003 L 18.6362 43.1653 L 18.5666 43.0267 L 18.5013 42.8854 L 18.4401 42.7419 L 18.3828 42.5970 L 18.3292 42.4515 L 18.2791 42.3060 L 18.2326 42.1617 L 18.1898 42.0198 L 18.1505 41.8808 L 18.1146 41.7457 L 18.0820 41.6150 L 18.0526 41.4894 L 18.0263 41.3698 L 18.0028 41.2568 L 17.9822 41.1511 L 17.9642 41.0534 L 17.9488 40.9645 L 17.9358 40.8851 L 17.9252 40.8159 L 17.9167 40.7577 L 17.9104 40.7111 L 17.9059 40.6769 L 17.9034 40.6558 L 17.9026 40.6486 L 17.8879 40.5408 L 17.8650 40.4393 L 17.8346 40.3473 L 17.7977 40.2677 L 17.7554 40.2032 L 17.7091 40.1556 L 17.6603 40.1266 L 17.6106 40.1169 L 17.5615 40.1268 L 17.5147 40.1560 L 17.4714 40.2035 L 17.4332 40.2678 L 17.4012 40.3468 L 17.3763 40.4380 L 17.3595 40.5385 L 17.3511 40.6453 L 17.3514 40.7548 L 17.3605 40.8638 L 17.3616 40.8733 L 17.3649 40.9009 L 17.3705 40.9456 L 17.3786 41.0064 L 17.3893 41.0824 L 17.4028 41.1725 L 17.4191 41.2756 L 17.4385 41.3908 L 17.4611 41.5171 L 17.4870 41.6535 L 17.5164 41.7990 L 17.5493 41.9526 L 17.5860 42.1133 L 17.6266 42.2801 L 17.6713 42.4521 L 17.7201 42.6282 L 17.7734 42.8074 L 17.8311 42.9889 L 17.8938 43.1719 L 17.9618 43.3560 L 18.0352 43.5402 L 18.1141 43.7235 L 18.1986 43.9048 L 18.2889 44.0832 L 18.3851 44.2576 L 18.4873 44.4271 L 18.5956 44.5907 L 18.7102 44.7471 L 18.8311 44.8956 L 18.9587 45.0349 L 19.0929 45.1639 L 19.2340 45.2817 L 19.3821 45.3871 L 19.5374 45.4790 L 19.7001 45.5562 L 19.8703 45.6175 L 19.9636 45.6410 L 20.0560 45.6544 L 20.1474 45.6579 L 20.2378 45.6516 L 20.3271 45.6358 L 20.4153 45.6105 L 20.5022 45.5760 L 20.5878 45.5324 L 20.6720 45.4799 L 20.7547 45.4187 L 20.8359 45.3490 L 20.9156 45.2709 L 20.9935 45.1846 L 21.0697 45.0903 L 21.1441 44.9883 L 21.2166 44.8786 L 21.2872 44.7615 L 21.3557 44.6373 L 21.4222 44.5062 L 21.4870 44.3686 L 21.5501 44.2246 L 21.6113 44.0744 L 21.6709 43.9180 L 21.7288 43.7557 L 21.7850 43.5875 L 21.8395 43.4136 L 21.8924 43.2340 L 21.9437 43.0491 L 21.9934 42.8587 L 22.0415 42.6632 L 22.0880 42.4627 L 22.1330 42.2572 L 22.1765 42.0469 L 22.2185 41.8320 L 22.2591 41.6126 L 22.2981 41.3888 L 22.3160 41.2825 L 22.3334 41.1751 L 22.3506 41.0668 L 22.3674 40.9575 L 22.3839 40.8473 L 22.4001 40.7362 L 22.4159 40.6241 L 22.4315 40.5112 L 22.4467 40.3974 L 22.4616 40.2827 L 22.4762 40.1673 L 22.4904 40.0510 L 22.5044 39.9339 L 22.5181 39.8161 L 22.5314 39.6975 L 22.5445 39.5781 L 22.5572 39.4581 L 22.5697 39.3374 L 22.6805 39.3244 L 22.7901 39.3093 L 22.8986 39.2921 L 23.0058 39.2729 L 23.1118 39.2519 L 23.2164 39.2292 L 23.3196 39.2048 L 23.4214 39.1788 L 23.5217 39.1514 L 23.6205 39.1227 L 23.7177 39.0927 L 23.8132 39.0616 L 23.9071 39.0294 L 23.9993 38.9963 L 24.0896 38.9624 L 24.1782 38.9278 L 24.2648 38.8925 L 24.3495 38.8568 L 24.4026 38.9903 L 24.4607 39.1156 L 24.5235 39.2320 L 24.5908 39.3387 L 24.6619 39.4351 L 24.7367 39.5204 L 24.8144 39.5942 L 24.8948 39.6558 L 24.9772 39.7049 L 25.0612 39.7411 L 25.1462 39.7641 L 25.2317 39.7738 L 25.3171 39.7700 L 25.4020 39.7526 L 25.4856 39.7218 L 25.5675 39.6777 L 25.6472 39.6206 L 25.7241 39.5507 L 25.8038 39.4606 L 25.8789 39.3566 L 25.9490 39.2395 L 26.0132 39.1102 L 26.0712 38.9696 L 26.1225 38.8188 L 26.1667 38.6591 L 26.2033 38.4916 L 26.2321 38.3177 L 26.2528 38.1387 L 26.2654 37.9561 L 26.2695 37.7713 L 26.2654 37.5858 L 26.2528 37.4011 L 26.2321 37.2187 L 26.2033 37.0399 L 26.1666 36.8663 L 26.1225 36.6992 L 26.0883 36.5896 L 26.0509 36.4841 L 26.0105 36.3830 L 25.9671 36.2866 L 25.9210 36.1954 L 25.8724 36.1095 L 25.8214 36.0295 L 25.7682 35.9554 L 25.7130 35.8876 L 25.6560 35.8263 L 25.5975 35.7717 L 25.5376 35.7240 L 25.4766 35.6833 L 25.4146 35.6498 L 25.3520 35.6236 L 25.2889 35.6047 L 25.2255 35.5931 L 25.1622 35.5890 L 25.1326 35.5897 L 25.1031 35.5920 L 25.0737 35.5958 L 25.0445 35.6013 L 25.0153 35.6084 L 24.9863 35.6171 L 24.9575 35.6274 L 24.9289 35.6392 L 24.9006 35.6526 L 24.8724 35.6675 L 24.8446 35.6840 L 24.8170 35.7020 L 24.7897 35.7215 L 24.7628 35.7424 L 24.7362 35.7649 L 24.7100 35.7888 L 24.6841 35.8141 L 24.6587 35.8409 L 24.6089 35.8987 L 24.5609 35.9620 L 24.5150 36.0305 L 24.4712 36.1040 L 24.4296 36.1823 L 24.3905 36.2651 L 24.3538 36.3521 L 24.3197 36.4432 L 24.2884 36.5379 L 24.2598 36.6361 L 24.2341 36.7374 L 24.2114 36.8415 L 24.1917 36.9482 L 24.1750 37.0570 L 24.1615 37.1677 L 24.1511 37.2799 L 24.1439 37.3934 L 24.1399 37.5077 L 24.0704 37.5360 L 23.9994 37.5641 L 23.9268 37.5919 L 23.8527 37.6194 L 23.7771 37.6463 L 23.7002 37.6728 L 23.6219 37.6987 L 23.5424 37.7239 L 23.4616 37.7485 L 23.3797 37.7723 L 23.2967 37.7952 L 23.2126 37.8173 L 23.1275 37.8385 L 23.0415 37.8586 L 22.9546 37.8777 L 22.8668 37.8957 L 22.7783 37.9125 L 22.6890 37.9280 L 22.7111 37.5866 L 22.7309 37.2413 L 22.7486 36.8925 L 22.7641 36.5403 L 22.7774 36.1851 L 22.7886 35.8269 L 22.7975 35.4662 L 22.8043 35.1031 L 22.8089 34.7379 L 22.8114 34.3709 L 22.8116 34.0022 L 22.8098 33.6321 L 22.8057 33.2609 L 22.7995 32.8888 L 22.7912 32.5161 L 22.7807 32.1429 L 22.7681 31.7696 L 22.7533 31.3964 L 22.7363 31.0228 L 22.7168 30.6507 L 22.6950 30.2805 L 22.6708 29.9125 L 22.6442 29.5468 L 22.6153 29.1837 L 22.5840 28.8236 L 22.5504 28.4666 L 22.5144 28.1130 L 22.4761 27.7631 L 22.4355 27.4172 L 22.3925 27.0754 L 22.3473 26.7380 L 22.2997 26.4053 L 22.2499 26.0775 L 22.1978 25.7549 L 22.1434 25.4378 L 22.0868 25.1262 L 22.0883 25.1253 L 22.0899 25.1243 L 22.0914 25.1233 L 22.0929 25.1223 L 22.0945 25.1212 L 22.0960 25.1201 L 22.0976 25.1191 L 22.0992 25.1180 L 22.1007 25.1169 L 22.1023 25.1158 L 22.1038 25.1147 L 22.1054 25.1136 L 22.1069 25.1126 L 22.1085 25.1115 L 22.1100 25.1105 L 22.1116 25.1095 L 22.1131 25.1085 L 22.1146 25.1076 L 22.2226 25.0436 L 22.3295 24.9839 L 22.4353 24.9285 L 22.5398 24.8776 L 22.6429 24.8310 L 22.7445 24.7889 L 22.8446 24.7513 L 22.9430 24.7182 L 23.0396 24.6898 L 23.1343 24.6660 L 23.2271 24.6468 L 23.3178 24.6324 L 23.4063 24.6228 L 23.4925 24.6180 L 23.5763 24.6180 L 23.6576 24.6229 L 23.7363 24.6328 L 23.8123 24.6476 L 23.8853 24.6668 L 23.9551 24.6900 L 24.0218 24.7173 L 24.0853 24.7488 L 24.1459 24.7845 L 24.2035 24.8244 L 24.2581 24.8688 L 24.3098 24.9176 L 24.3587 24.9709 L 24.4048 25.0288 L 24.4482 25.0914 L 24.4889 25.1588 L 24.5271 25.2310 L 24.5626 25.3081 L 24.5957 25.3901 L 24.6263 25.4772 L 24.6546 25.5694 L 24.6805 25.6668 L 24.7820 26.1479 L 24.8518 26.6346 L 24.8928 27.1225 L 24.9082 27.6070 L 24.9011 28.0839 L 24.8747 28.5489 L 24.8322 28.9979 L 24.7768 29.4268 L 24.7117 29.8318 L 24.6402 30.2091 L 24.5655 30.5550 L 24.4907 30.8659 L 24.4189 31.1384 L 24.3533 31.3689 L 24.2969 31.5542 L 24.2528 31.6907 L 24.2241 31.7752 L 24.2139 31.8041 L 24.1822 31.9060 L 24.1599 32.0171 L 24.1476 32.1342 L 24.1457 32.2538 L 24.1542 32.3722 L 24.1729 32.4860 L 24.2013 32.5917 L 24.2385 32.6861 L 24.2833 32.7665 L 24.3346 32.8303 L 24.3906 32.8755 L 24.4499 32.9008 L 24.5105 32.9054 L 24.5706 32.8890 L 24.6284 32.8521 L 24.6821 32.7958 L 24.7301 32.7217 L 24.7708 32.6321 L 24.7837 32.5978 L 24.8198 32.4977 L 24.8751 32.3351 L 24.9458 32.1139 L 25.0280 31.8375 L 25.1177 31.5094 L 25.2111 31.1334 L 25.3042 30.7131 L 25.3928 30.2524 L 25.4730 29.7552 L 25.5406 29.2257 L 25.5915 28.6683 L 25.6215 28.0874 L 25.6265 27.4878 L 25.6025 26.8743 L 25.5455 26.2520 L 25.4516 25.6261 L 25.3171 25.0021 L 25.2707 24.8321 L 25.2196 24.6713 L 25.1638 24.5196 L 25.1037 24.3770 L 25.0394 24.2434 L 24.9713 24.1187 L 24.8994 24.0028 L 24.8241 23.8958 L 24.7455 23.7974 L 24.6639 23.7076 L 24.5794 23.6263 L 24.4924 23.5534 L 24.4031 23.4888 L 24.3116 23.4325 L 24.2181 23.3842 L 24.1229 23.3439 L 24.0262 23.3115 L 23.9282 23.2869 L 23.8788 23.2773 L 23.8289 23.2694 L 23.7788 23.2630 L 23.7282 23.2582 L 23.6773 23.2550 L 23.6261 23.2534 L 23.5746 23.2532 L 23.5227 23.2546 L 23.4705 23.2575 L 23.4180 23.2618 L 23.3652 23.2677 L 23.3121 23.2749 L 23.2586 23.2836 L 23.2049 23.2937 L 23.1509 23.3052 L 23.0966 23.3181 L 23.0421 23.3323 L 22.9873 23.3479 L 22.9322 23.3648 L 22.8768 23.3830 L 22.8212 23.4025 L 22.7654 23.4232 L 22.7093 23.4452 L 22.6530 23.4684 L 22.5965 23.4928 L 22.5398 23.5184 L 22.4829 23.5452 L 22.4257 23.5731 L 22.3684 23.6021 L 22.3109 23.6323 L 22.2532 23.6635 L 22.1953 23.6958 L 22.1373 23.7292 L 22.0791 23.7637 L 22.0207 23.7991 L 21.9622 23.8355 L 21.9551 23.8401 L 21.9480 23.8448 L 21.9408 23.8496 L 21.9336 23.8545 L 21.9264 23.8595 L 21.9192 23.8646 L 21.9119 23.8698 L 21.9047 23.8750 L 21.8974 23.8802 L 21.8902 23.8855 L 21.8829 23.8908 L 21.8757 23.8960 L 21.8684 23.9012 L 21.8612 23.9063 L 21.8540 23.9114 L 21.8468 23.9164 L 21.8396 23.9213 L 21.8325 23.9261 L 21.7852 23.7302 L 21.7369 23.5378 L 21.6876 23.3488 L 21.6372 23.1635 L 21.5857 22.9819 L 21.5332 22.8040 L 21.4796 22.6299 L 21.4251 22.4598 L 21.3694 22.2936 L 21.3128 22.1314 L 21.2551 21.9734 L 21.1965 21.8195 L 21.1368 21.6700 L 21.0761 21.5247 L 21.0145 21.3838 L 20.9518 21.2474 L 20.8882 21.1156 L 20.8235 20.9883 L 20.8428 20.8426 L 20.8569 20.6952 L 20.8658 20.5469 L 20.8693 20.3985 L 20.8675 20.2509 L 20.8604 20.1052 L 20.8480 19.9620 L 20.8304 19.8223 L 20.8077 19.6868 L 20.7801 19.5565 L 20.7477 19.4321 L 20.7107 19.3142 L 20.6694 19.2036 L 20.6240 19.1010 L 20.5747 19.0069 L 20.5219 18.9218 L 20.4660 18.8462 L 20.4071 18.7806 L 20.3849 18.7591 L 20.3623 18.7391 L 20.3394 18.7204 L 20.3162 18.7032 L 20.2928 18.6874 L 20.2691 18.6731 L 20.2452 18.6602 L 20.2211 18.6488 L 20.1968 18.6389 L 20.1723 18.6305 L 20.1477 18.6235 L 20.1229 18.6181 L 20.0981 18.6142 L 20.0731 18.6117 L 20.0481 18.6108 L 20.0230 18.6113 L 19.9978 18.6134 L 19.9727 18.6169 Z M 21.4495 25.5816 L 21.5036 25.8705 L 21.5558 26.1656 L 21.6062 26.4665 L 21.6546 26.7730 L 21.7011 27.0849 L 21.7455 27.4021 L 21.7879 27.7241 L 21.8281 28.0507 L 21.8662 28.3818 L 21.9020 28.7171 L 21.9356 29.0563 L 21.9668 29.3991 L 21.9957 29.7453 L 22.0222 30.0946 L 22.0463 30.4468 L 22.0678 30.8016 L 22.0868 31.1587 L 22.1032 31.5178 L 22.1177 31.8917 L 22.1299 32.2656 L 22.1398 32.6393 L 22.1474 33.0125 L 22.1527 33.3848 L 22.1556 33.7560 L 22.1564 34.1256 L 22.1548 34.4935 L 22.1510 34.8593 L 22.1450 35.2226 L 22.1367 35.5832 L 22.1262 35.9407 L 22.1135 36.2949 L 22.0987 36.6454 L 22.0816 36.9920 L 22.0624 37.3342 L 22.0410 37.6718 L 22.0175 38.0046 L 21.8859 38.0076 L 21.7538 38.0071 L 21.6212 38.0027 L 21.4884 37.9944 L 21.3555 37.9820 L 21.2225 37.9653 L 21.0897 37.9443 L 20.9571 37.9187 L 20.8248 37.8884 L 20.6930 37.8532 L 20.5618 37.8130 L 20.4313 37.7677 L 20.3015 37.7170 L 20.1727 37.6610 L 20.0448 37.5993 L 19.9181 37.5319 L 19.7925 37.4587 L 19.6683 37.3794 L 19.4678 37.2369 L 19.2701 37.0790 L 19.0752 36.9065 L 18.8834 36.7202 L 18.6949 36.5209 L 18.5098 36.3093 L 18.3283 36.0861 L 18.1505 35.8522 L 17.9766 35.6081 L 17.8068 35.3548 L 17.6412 35.0927 L 17.4798 34.8226 L 17.3230 34.5452 L 17.1708 34.2611 L 17.0234 33.9709 L 16.8808 33.6753 L 16.7434 33.3749 L 16.6110 33.0702 L 16.6742 32.8492 L 16.7396 32.6296 L 16.8074 32.4115 L 16.8775 32.1951 L 16.9500 31.9807 L 17.0248 31.7684 L 17.1021 31.5584 L 17.1817 31.3510 L 17.2638 31.1464 L 17.3484 30.9447 L 17.4355 30.7461 L 17.5250 30.5510 L 17.6171 30.3594 L 17.7117 30.1717 L 17.8089 29.9879 L 17.9087 29.8084 L 18.0112 29.6334 L 18.1163 29.4631 L 18.2856 29.2005 L 18.4580 28.9418 L 18.6334 28.6872 L 18.8115 28.4370 L 18.9920 28.1916 L 19.1748 27.9513 L 19.3597 27.7162 L 19.5462 27.4869 L 19.7343 27.2635 L 19.9237 27.0465 L 20.1140 26.8362 L 20.3050 26.6329 L 20.4964 26.4370 L 20.6879 26.2488 L 20.8793 26.0688 L 21.0703 25.8974 L 21.2604 25.7348 L 21.4495 25.5816 Z M 19.6514 30.1888 L 19.5435 30.2027 L 19.4385 30.2368 L 19.3369 30.2901 L 19.2391 30.3616 L 19.1454 30.4502 L 19.0562 30.5550 L 18.9720 30.6749 L 18.8931 30.8091 L 18.8198 30.9566 L 18.7526 31.1164 L 18.6919 31.2876 L 18.6381 31.4694 L 18.5914 31.6608 L 18.5523 31.8610 L 18.5212 32.0691 L 18.4985 32.2843 L 18.4846 32.5058 L 18.4799 32.7327 L 18.4846 32.9597 L 18.4985 33.1815 L 18.5212 33.3972 L 18.5523 33.6060 L 18.5914 33.8070 L 18.6381 33.9994 L 18.6919 34.1823 L 18.7526 34.3548 L 18.8198 34.5160 L 18.8931 34.6650 L 18.9720 34.8008 L 19.0562 34.9225 L 19.1454 35.0292 L 19.2391 35.1197 L 19.3369 35.1932 L 19.4385 35.2486 L 19.5435 35.2850 L 19.6514 35.3011 L 19.7597 35.2962 L 19.8658 35.2707 L 19.9692 35.2253 L 20.0694 35.1609 L 20.1660 35.0783 L 20.2584 34.9784 L 20.3463 34.8620 L 20.4291 34.7300 L 20.5063 34.5833 L 20.5774 34.4229 L 20.6420 34.2495 L 20.6995 34.0643 L 20.7495 33.8681 L 20.7915 33.6619 L 20.8250 33.4467 L 20.8495 33.2236 L 20.8645 32.9936 L 20.8696 32.7577 L 20.8645 32.5216 L 20.8495 32.2913 L 20.8250 32.0677 L 20.7915 31.8518 L 20.7495 31.6448 L 20.6995 31.4475 L 20.6420 31.2611 L 20.5774 31.0864 L 20.5063 30.9244 L 20.4291 30.7761 L 20.3463 30.6424 L 20.2584 30.5242 L 20.1660 30.4223 L 20.0694 30.3377 L 19.9692 30.2712 L 19.8658 30.2237 L 19.7597 30.1960 L 19.6514 30.1888 Z"
     id="electron_p2" />
  <path
     style="fill:none;stroke:#cff7ff;stroke-width:0.8955;stroke-linecap:round;stroke-linejoin:round"
     d="M 24.4913 31.5268 L 24.5029 31.4951 L 24.5352 31.4025 L 24.5849 31.2524 L 24.6483 31.0486 L 24.7222 30.7944 L 24.8029 30.4934 L 24.8869 30.1492 L 24.9707 29.7654 L 25.0506 29.3457 L 25.1232 28.8941 L 25.1846 28.4146 L 25.2312 27.9112 L 25.2594 27.3883 L 25.2655 26.8503 L 25.2458 26.3018 L 25.1969 25.7476 L 25.1152 25.1925 L 24.9973 24.6415 L 24.8321 24.1515 L 24.6139 23.7734 L 24.3478 23.5023 L 24.0391 23.3330 L 23.6931 23.2598 L 23.3149 23.2768 L 22.9097 23.3778 L 22.4826 23.5568 L 22.0382 23.8076 L 21.5813 24.1239 L 21.1162 24.4999 L 20.6470 24.9296 L 20.1779 25.4075 L 19.7124 25.9281 L 19.2541 26.4864 L 18.8063 27.0776 L 18.3720 27.6969 L 17.9543 28.3403 L 17.6700 28.8268 L 17.4050 29.3420 L 17.1587 29.8822 L 16.9308 30.4437 L 16.7208 31.0230 L 16.5282 31.6166 L 16.3527 32.2211 L 16.1940 32.8331 L 16.0518 33.4494 L 15.9258 34.0667 L 15.8158 34.6817 L 15.7215 35.2913 L 15.6428 35.8923 L 15.5795 36.4814 L 15.5315 37.0556 L 15.4986 37.6115 L 15.4808 38.1460 L 15.4781 38.6558"
     id="electron_p3" />
  <path
     style="fill:none;stroke:#cff7ff;stroke-width:0.8955;stroke-linecap:round;stroke-linejoin:round"
     d="M 17.6303 40.1390 L 17.6342 40.1716 L 17.6464 40.2647 L 17.6681 40.4113 L 17.7002 40.6044 L 17.7437 40.8371 L 17.7998 41.1026 L 17.8695 41.3938 L 17.9539 41.7041 L 18.0541 42.0266 L 18.1714 42.3546 L 18.3069 42.6811 L 18.4620 42.9993 L 18.6379 43.3023 L 18.8361 43.5830 L 19.0580 43.8344 L 19.3053 44.0491 L 19.5795 44.2197 L 19.8825 44.3385 L 20.1919 44.3629 L 20.4836 44.2590 L 20.7573 44.0326 L 21.0122 43.6899 L 21.2481 43.2372 L 21.4644 42.6815 L 21.6608 42.0297 L 21.8368 41.2892 L 21.9922 40.4677 L 22.1266 39.5731 L 22.2398 38.6134 L 22.3316 37.5970 L 22.4019 36.5324 L 22.4504 35.4281 L 22.4771 34.2929 L 22.4820 33.1356 L 22.4651 31.9651 L 22.4264 30.7902 L 22.3842 29.9496 L 22.3290 29.1206 L 22.2611 28.3063 L 22.1809 27.5100 L 22.0886 26.7349 L 21.9846 25.9840 L 21.8693 25.2604 L 21.7428 24.5671 L 21.6057 23.9069 L 21.4583 23.2828 L 21.3009 22.6975 L 21.1339 22.1538 L 20.9577 21.6542 L 20.7726 21.2013 L 20.5791 20.7975 L 20.3775 20.4453 L 20.1681 20.1470 L 19.9515 19.9048"
     id="electron_p4" />
  <path
     style="fill:none;stroke:#cff7ff;stroke-width:0.8955;stroke-linecap:round;stroke-linejoin:round"
     d="M 18.1940 24.1214 L 18.1715 24.0954 L 18.1071 24.0245 L 18.0054 23.9191 L 17.8711 23.7896 L 17.7090 23.6465 L 17.5240 23.5001 L 17.3207 23.3607 L 17.1037 23.2383 L 16.8776 23.1427 L 16.6468 23.0834 L 16.4156 23.0699 L 16.1881 23.1114 L 15.9683 23.2170 L 15.7602 23.3958 L 15.5676 23.6567 L 15.3940 24.0089 L 15.2433 24.4615 L 15.1190 25.0241 L 15.0351 25.6672 L 15.0015 26.3507 L 15.0154 27.0686 L 15.0745 27.8143 L 15.1765 28.5818 L 15.3194 29.3648 L 15.5013 30.1566 L 15.7204 30.9509 L 15.9750 31.7406 L 16.2635 32.5188 L 16.5841 33.2779 L 16.9354 34.0101 L 17.3156 34.7074 L 17.7231 35.3611 L 18.1562 35.9621 L 18.6130 36.5009 L 19.0918 36.9674 L 19.5903 37.3511 L 19.9490 37.5645 L 20.3146 37.7336 L 20.6852 37.8613 L 21.0588 37.9505 L 21.4331 38.0042 L 21.8058 38.0254 L 22.1746 38.0172 L 22.5369 37.9829 L 22.8902 37.9257 L 23.2316 37.8491 L 23.5584 37.7567 L 23.8677 37.6520 L 24.1565 37.5388 L 24.4218 37.4210 L 24.6606 37.3026 L 24.8698 37.1876 L 25.0463 37.0801 L 25.1871 36.9843"
     id="electron_p5" />
  <path
     style="fill:#cff7ff"
     d="M 19.6514 29.5499 L 19.5435 29.5649 L 19.4385 29.6002 L 19.3369 29.6545 L 19.2391 29.7270 L 19.1454 29.8166 L 19.0562 29.9223 L 18.9720 30.0431 L 18.8931 30.1781 L 18.8198 30.3264 L 18.7526 30.4869 L 18.6919 30.6587 L 18.6381 30.8411 L 18.5914 31.0330 L 18.5523 31.2336 L 18.5212 31.4420 L 18.4985 31.6575 L 18.4846 31.8791 L 18.4799 32.1061 L 18.4846 32.3330 L 18.4985 32.5547 L 18.5212 32.7701 L 18.5523 32.9786 L 18.5914 33.1792 L 18.6381 33.3711 L 18.6919 33.5534 L 18.7526 33.7253 L 18.8198 33.8858 L 18.8931 34.0340 L 18.9720 34.1690 L 19.0562 34.2899 L 19.1454 34.3956 L 19.2391 34.4852 L 19.3369 34.5576 L 19.4385 34.6120 L 19.5435 34.6472 L 19.6514 34.6622 L 19.7597 34.6562 L 19.8658 34.6296 L 19.9692 34.5831 L 20.0694 34.5177 L 20.1660 34.4341 L 20.2584 34.3332 L 20.3463 34.2159 L 20.4291 34.0830 L 20.5063 33.9355 L 20.5774 33.7743 L 20.6420 33.6003 L 20.6995 33.4144 L 20.7495 33.2177 L 20.7915 33.0111 L 20.8250 32.7956 L 20.8495 32.5722 L 20.8645 32.3420 L 20.8696 32.1061 L 20.8645 31.8701 L 20.8495 31.6399 L 20.8250 31.4166 L 20.7915 31.2011 L 20.7495 30.9944 L 20.6995 30.7977 L 20.6420 30.6119 L 20.5774 30.4378 L 20.5063 30.2766 L 20.4291 30.1291 L 20.3463 29.9963 L 20.2584 29.8789 L 20.1660 29.7781 L 20.0694 29.6945 L 19.9692 29.6290 L 19.8658 29.5826 L 19.7597 29.5559 L 19.6514 29.5499 Z"
     id="electron_p6" />
  <path
     style="opacity:0.1;fill:#ffffff"
     d="M 19.6514 14.2131 L 18.9313 14.4911 L 18.2332 14.8936 L 17.5614 15.4134 L 16.9196 16.0433 L 16.3110 16.7753 L 15.7385 17.6018 L 15.2046 18.5148 L 14.7113 19.5065 L 14.2606 20.5691 L 13.8539 21.6951 L 13.4924 22.8767 L 13.1773 24.1067 L 12.9094 25.3779 L 12.6893 26.6830 L 12.5176 28.0153 L 12.3947 29.3677 L 12.3208 30.7335 L 12.2962 32.1061 L 12.2965 32.1188 L 12.2967 32.1315 L 12.2969 32.1442 L 12.2972 32.1568 L 12.2975 32.1695 L 12.2977 32.1822 L 12.2980 32.1949 L 12.2983 32.2076 L 12.2985 32.2203 L 12.2988 32.2330 L 12.2991 32.2457 L 12.2994 32.2584 L 12.2997 32.2710 L 12.3000 32.2837 L 12.3003 32.2964 L 12.3006 32.3091 L 12.3009 32.3218 L 12.3012 32.3345 L 12.3369 30.9822 L 12.4205 29.6384 L 12.5518 28.3096 L 12.7305 27.0022 L 12.9561 25.7229 L 13.2282 24.4784 L 13.5460 23.2755 L 13.9088 22.1211 L 14.3155 21.0224 L 14.7648 19.9865 L 15.2553 19.0208 L 15.7851 18.1327 L 16.3524 17.3298 L 16.9545 16.6196 L 17.5889 16.0094 L 18.2523 15.5068 L 18.9411 15.1188 L 19.6514 14.8521 L 20.3814 14.7147 L 21.1234 14.7117 L 21.8718 14.8481 L 22.6207 15.1277 L 23.3637 15.5533 L 24.0940 16.1262 L 24.8045 16.8463 L 25.4880 17.7116 L 26.1370 18.7183 L 26.7442 19.8607 L 27.3022 21.1309 L 27.8042 22.5190 L 28.2437 24.0131 L 28.6147 25.5994 L 28.9123 27.2622 L 29.1322 28.9846 L 29.2713 30.7482 L 29.3277 32.5340 L 29.3283 32.5102 L 29.3289 32.4865 L 29.3295 32.4627 L 29.3300 32.4389 L 29.3306 32.4152 L 29.3311 32.3914 L 29.3316 32.3676 L 29.3321 32.3439 L 29.3326 32.3201 L 29.3331 32.2963 L 29.3335 32.2725 L 29.3340 32.2488 L 29.3344 32.2250 L 29.3348 32.2012 L 29.3352 32.1774 L 29.3356 32.1536 L 29.3360 32.1299 L 29.3363 32.1061 L 29.2936 30.3007 L 29.1663 28.5156 L 28.9561 26.7704 L 28.6661 25.0842 L 28.3006 23.4747 L 27.8645 21.9580 L 27.3639 20.5487 L 26.8054 19.2592 L 26.1961 18.0998 L 25.5434 17.0786 L 24.8550 16.2018 L 24.1385 15.4733 L 23.4015 14.8951 L 22.6512 14.4674 L 21.8947 14.1888 L 21.1386 14.0564 L 20.3889 14.0662 L 19.6514 14.2131 Z"
     id="electron_p7" />
  <path
     style="fill:#cff7ff"
     d="M 19.9091 17.9906 L 19.8591 18.0100 L 19.8095 18.0353 L 19.7603 18.0663 L 19.7119 18.1029 L 19.6642 18.1449 L 19.6176 18.1923 L 19.5720 18.2449 L 19.5276 18.3025 L 19.4846 18.3649 L 19.4431 18.4320 L 19.4032 18.5034 L 19.3650 18.5791 L 19.3287 18.6587 L 19.2943 18.7420 L 19.2619 18.8288 L 19.2317 18.9188 L 19.2037 19.0117 L 19.1780 19.1073 L 19.1425 19.2620 L 19.1132 19.4213 L 19.0901 19.5842 L 19.0735 19.7493 L 19.0635 19.9155 L 19.0601 20.0817 L 19.0635 20.2464 L 19.0735 20.4087 L 19.0901 20.5673 L 19.1131 20.7210 L 19.1425 20.8686 L 19.1780 21.0093 L 19.2194 21.1417 L 19.2663 21.2651 L 19.3185 21.3784 L 19.3755 21.4809 L 19.4370 21.5716 L 19.5025 21.6499 L 19.5715 21.7152 L 19.6436 21.7669 L 19.7182 21.8046 L 19.7948 21.8280 L 19.8727 21.8369 L 19.9514 21.8310 L 20.0303 21.8105 L 20.1089 21.7754 L 20.1864 21.7259 L 20.2623 21.6623 L 20.3361 21.5852 L 20.4070 21.4949 L 20.4746 21.3923 L 20.5384 21.2780 L 20.5977 21.1530 L 20.6522 21.0181 L 20.7014 20.8744 L 20.7449 20.7230 L 20.7823 20.5651 L 20.8133 20.4019 L 20.8377 20.2347 L 20.8553 20.0649 L 20.8659 19.8938 L 20.8695 19.7227 L 20.8659 19.5530 L 20.8553 19.3861 L 20.8377 19.2233 L 20.8133 19.0658 L 20.7823 18.9149 L 20.7449 18.7719 L 20.7014 18.6377 L 20.6523 18.5135 L 20.5978 18.4002 L 20.5385 18.2987 L 20.4747 18.2097 L 20.4071 18.1338 L 20.3817 18.1097 L 20.3559 18.0874 L 20.3297 18.0669 L 20.3031 18.0483 L 20.2762 18.0316 L 20.2490 18.0168 L 20.2215 18.0040 L 20.1938 17.9930 L 20.1658 17.9840 L 20.1377 17.9770 L 20.1093 17.9719 L 20.0809 17.9687 L 20.0524 17.9675 L 20.0237 17.9682 L 19.9951 17.9709 L 19.9664 17.9755 L 19.9377 17.9821 L 19.9091 17.9906 Z M 25.1622 34.8926 L 25.1326 34.8935 L 25.1031 34.8961 L 25.0737 34.9003 L 25.0445 34.9061 L 25.0153 34.9135 L 24.9863 34.9225 L 24.9575 34.9330 L 24.9289 34.9452 L 24.9006 34.9589 L 24.8724 34.9741 L 24.8446 34.9908 L 24.8170 35.0091 L 24.7897 35.0289 L 24.7628 35.0502 L 24.7362 35.0729 L 24.7100 35.0971 L 24.6841 35.1227 L 24.6587 35.1497 L 24.5816 35.2433 L 24.5093 35.3497 L 24.4423 35.4683 L 24.3810 35.5980 L 24.3258 35.7379 L 24.2772 35.8869 L 24.2355 36.0440 L 24.2010 36.2079 L 24.1739 36.3775 L 24.1544 36.5515 L 24.1426 36.7287 L 24.1387 36.9077 L 24.1426 37.0873 L 24.1544 37.2662 L 24.1739 37.4431 L 24.2010 37.6166 L 24.2355 37.7856 L 24.2773 37.9488 L 24.3259 38.1049 L 24.3811 38.2528 L 24.4424 38.3915 L 24.5095 38.5198 L 24.5818 38.6368 L 24.6588 38.7416 L 24.7401 38.8334 L 24.8249 38.9114 L 24.9126 38.9750 L 25.0027 39.0236 L 25.0945 39.0569 L 25.1872 39.0746 L 25.2802 39.0763 L 25.3727 39.0621 L 25.4640 39.0320 L 25.5535 38.9861 L 25.6404 38.9247 L 25.7241 38.8484 L 25.8038 38.7574 L 25.8789 38.6527 L 25.9490 38.5349 L 26.0132 38.4049 L 26.0712 38.2637 L 26.1225 38.1124 L 26.1667 37.9521 L 26.2033 37.7843 L 26.2321 37.6100 L 26.2528 37.4308 L 26.2654 37.2481 L 26.2695 37.0633 L 26.2654 36.8778 L 26.2528 36.6933 L 26.2321 36.5110 L 26.2033 36.3326 L 26.1666 36.1594 L 26.1225 35.9927 L 26.0883 35.8835 L 26.0509 35.7784 L 26.0105 35.6777 L 25.9671 35.5817 L 25.9210 35.4910 L 25.8724 35.4057 L 25.8214 35.3261 L 25.7682 35.2526 L 25.7130 35.1854 L 25.6560 35.1247 L 25.5975 35.0707 L 25.5376 35.0237 L 25.4766 34.9836 L 25.4146 34.9508 L 25.3520 34.9252 L 25.2889 34.9069 L 25.2255 34.8960 L 25.1622 34.8926 Z M 15.4781 36.8695 L 15.4104 36.8706 L 15.3434 36.8853 L 15.2775 36.9134 L 15.2133 36.9546 L 15.1513 37.0086 L 15.0919 37.0749 L 15.0355 37.1530 L 14.9825 37.2423 L 14.9334 37.3421 L 14.8885 37.4517 L 14.8481 37.5701 L 14.8124 37.6965 L 14.7819 37.8300 L 14.7565 37.9696 L 14.7367 38.1142 L 14.7223 38.2628 L 14.7137 38.4143 L 14.7108 38.5676 L 14.7137 38.7215 L 14.7223 38.8750 L 14.7367 39.0268 L 14.7565 39.1760 L 14.7819 39.3214 L 14.8124 39.4619 L 14.8481 39.5966 L 14.8885 39.7243 L 14.9334 39.8442 L 14.9825 39.9553 L 15.0355 40.0567 L 15.0919 40.1478 L 15.1513 40.2278 L 15.2133 40.2961 L 15.2775 40.3520 L 15.3434 40.3952 L 15.4104 40.4253 L 15.4781 40.4420 L 15.5459 40.4452 L 15.6134 40.4346 L 15.6801 40.4105 L 15.7453 40.3729 L 15.8087 40.3221 L 15.8696 40.2583 L 15.9277 40.1822 L 15.9824 40.0942 L 16.0334 39.9950 L 16.0801 39.8853 L 16.1223 39.7660 L 16.1597 39.6379 L 16.1918 39.5022 L 16.2184 39.3597 L 16.2393 39.2118 L 16.2544 39.0594 L 16.2635 38.9039 L 16.2665 38.7464 L 16.2635 38.5882 L 16.2544 38.4306 L 16.2393 38.2748 L 16.2184 38.1220 L 16.1918 37.9734 L 16.1597 37.8303 L 16.1223 37.6937 L 16.0801 37.5646 L 16.0334 37.4442 L 15.9824 37.3332 L 15.9277 37.2327 L 15.8696 37.1432 L 15.8087 37.0654 L 15.7453 37.0001 L 15.6801 36.9474 L 15.6134 36.9080 L 15.5459 36.8820 L 15.4781 36.8695 Z"
     id="electron_p8" />
  <path
     style="fill:#494c60"
     d="M 19.9515 19.2627 L 19.9252 19.2706 L 19.8992 19.2833 L 19.8735 19.3008 L 19.8485 19.3228 L 19.8243 19.3493 L 19.8011 19.3799 L 19.7790 19.4145 L 19.7583 19.4528 L 19.7390 19.4945 L 19.7214 19.5393 L 19.7055 19.5868 L 19.6914 19.6367 L 19.6794 19.6887 L 19.6694 19.7422 L 19.6616 19.7970 L 19.6560 19.8525 L 19.6525 19.9085 L 19.6514 19.9644 L 19.6525 20.0199 L 19.6560 20.0745 L 19.6616 20.1278 L 19.6694 20.1795 L 19.6794 20.2290 L 19.6914 20.2762 L 19.7055 20.3205 L 19.7214 20.3617 L 19.7390 20.3995 L 19.7583 20.4336 L 19.7790 20.4636 L 19.8011 20.4895 L 19.8243 20.5109 L 19.8485 20.5277 L 19.8735 20.5398 L 19.8992 20.5471 L 19.9252 20.5495 L 19.9515 20.5470 L 19.9778 20.5396 L 20.0039 20.5274 L 20.0296 20.5104 L 20.0548 20.4888 L 20.0792 20.4627 L 20.1026 20.4323 L 20.1249 20.3979 L 20.1459 20.3597 L 20.1654 20.3180 L 20.1833 20.2731 L 20.1995 20.2254 L 20.2137 20.1752 L 20.2260 20.1229 L 20.2361 20.0690 L 20.2441 20.0137 L 20.2499 19.9576 L 20.2533 19.9011 L 20.2545 19.8447 L 20.2533 19.7886 L 20.2499 19.7335 L 20.2441 19.6797 L 20.2361 19.6277 L 20.2260 19.5777 L 20.2137 19.5303 L 20.1995 19.4858 L 20.1833 19.4445 L 20.1654 19.4067 L 20.1459 19.3727 L 20.1249 19.3429 L 20.1026 19.3173 L 20.0792 19.2963 L 20.0548 19.2799 L 20.0296 19.2682 L 20.0039 19.2615 L 19.9778 19.2596 L 19.9515 19.2627 Z M 25.1871 36.2874 L 25.1562 36.2881 L 25.1255 36.2941 L 25.0953 36.3053 L 25.0659 36.3217 L 25.0374 36.3431 L 25.0100 36.3694 L 24.9841 36.4003 L 24.9596 36.4356 L 24.9370 36.4750 L 24.9162 36.5183 L 24.8975 36.5651 L 24.8810 36.6150 L 24.8668 36.6677 L 24.8551 36.7228 L 24.8459 36.7798 L 24.8392 36.8384 L 24.8352 36.8981 L 24.8339 36.9584 L 24.8352 37.0189 L 24.8392 37.0792 L 24.8459 37.1387 L 24.8551 37.1971 L 24.8668 37.2539 L 24.8810 37.3087 L 24.8975 37.3610 L 24.9162 37.4106 L 24.9370 37.4569 L 24.9596 37.4996 L 24.9841 37.5385 L 25.0100 37.5732 L 25.0374 37.6035 L 25.0659 37.6290 L 25.0953 37.6497 L 25.1255 37.6654 L 25.1562 37.6759 L 25.1871 37.6811 L 25.2181 37.6811 L 25.2488 37.6757 L 25.2792 37.6650 L 25.3088 37.6492 L 25.3375 37.6283 L 25.3651 37.6024 L 25.3914 37.5718 L 25.4162 37.5367 L 25.4392 37.4973 L 25.4603 37.4540 L 25.4793 37.4071 L 25.4961 37.3569 L 25.5105 37.3039 L 25.5225 37.2483 L 25.5319 37.1908 L 25.5387 37.1316 L 25.5428 37.0713 L 25.5441 37.0104 L 25.5428 36.9492 L 25.5387 36.8883 L 25.5319 36.8282 L 25.5225 36.7692 L 25.5105 36.7120 L 25.4961 36.6568 L 25.4793 36.6042 L 25.4603 36.5544 L 25.4392 36.5081 L 25.4162 36.4653 L 25.3914 36.4266 L 25.3651 36.3921 L 25.3375 36.3622 L 25.3088 36.3371 L 25.2792 36.3169 L 25.2488 36.3018 L 25.2181 36.2920 L 25.1871 36.2874 Z M 15.4781 38.0603 L 15.4555 38.0602 L 15.4331 38.0647 L 15.4111 38.0736 L 15.3896 38.0869 L 15.3687 38.1046 L 15.3488 38.1264 L 15.3298 38.1522 L 15.3119 38.1819 L 15.2954 38.2151 L 15.2802 38.2516 L 15.2665 38.2912 L 15.2545 38.3335 L 15.2441 38.3783 L 15.2355 38.4251 L 15.2288 38.4737 L 15.2239 38.5236 L 15.2210 38.5745 L 15.2200 38.6261 L 15.2210 38.6779 L 15.2239 38.7295 L 15.2288 38.7805 L 15.2355 38.8307 L 15.2441 38.8795 L 15.2545 38.9266 L 15.2665 38.9717 L 15.2802 39.0144 L 15.2954 39.0544 L 15.3119 39.0914 L 15.3298 39.1252 L 15.3488 39.1554 L 15.3687 39.1818 L 15.3896 39.2042 L 15.4111 39.2225 L 15.4331 39.2365 L 15.4555 39.2461 L 15.4781 39.2512 L 15.5007 39.2517 L 15.5231 39.2478 L 15.5453 39.2393 L 15.5669 39.2264 L 15.5879 39.2091 L 15.6080 39.1875 L 15.6272 39.1619 L 15.6452 39.1324 L 15.6620 39.0993 L 15.6774 39.0627 L 15.6912 39.0231 L 15.7035 38.9806 L 15.7140 38.9356 L 15.7227 38.8884 L 15.7296 38.8395 L 15.7345 38.7891 L 15.7375 38.7377 L 15.7385 38.6857 L 15.7375 38.6334 L 15.7345 38.5814 L 15.7296 38.5299 L 15.7227 38.4794 L 15.7140 38.4302 L 15.7035 38.3828 L 15.6912 38.3375 L 15.6774 38.2946 L 15.6620 38.2545 L 15.6452 38.2175 L 15.6272 38.1839 L 15.6080 38.1539 L 15.5879 38.1277 L 15.5669 38.1056 L 15.5453 38.0877 L 15.5231 38.0741 L 15.5007 38.0650 L 15.4781 38.0603 Z"
     id="electron_p9" />
</svg>
