<?xml version="1.0" encoding="UTF-8" standalone="no"?>
<svg
   width="64"
   height="64"
   version="1"
   id="svg1232"
   sodipodi:docname="google-spreadsheet.svg"
   inkscape:version="1.2.2 (b0a8486541, 2022-12-01)"
   xmlns:inkscape="http://www.inkscape.org/namespaces/inkscape"
   xmlns:sodipodi="http://sodipodi.sourceforge.net/DTD/sodipodi-0.dtd"
   xmlns="http://www.w3.org/2000/svg"
   xmlns:svg="http://www.w3.org/2000/svg">
  <defs
     id="defs1236" />
  <sodipodi:namedview
     id="namedview1234"
     pagecolor="#ffffff"
     bordercolor="#000000"
     borderopacity="0.25"
     inkscape:showpageshadow="2"
     inkscape:pageopacity="0.0"
     inkscape:pagecheckerboard="0"
     inkscape:deskcolor="#d1d1d1"
     showgrid="false"
     inkscape:zoom="20.85965"
     inkscape:cx="44.224136"
     inkscape:cy="34.252732"
     inkscape:window-width="2560"
     inkscape:window-height="1367"
     inkscape:window-x="0"
     inkscape:window-y="0"
     inkscape:window-maximized="1"
     inkscape:current-layer="svg1232" />
  <path
     style="opacity:0.2"
     d="M 14.5,8 C 13.115,8 12,9.115 12,10.5 v 45 c 0,1.385 1.115,2.5 2.5,2.5 h 35 C 50.885,58 52,56.885 52,55.5 V 23 L 38.25,21.75 37,8 Z"
     id="path1222" />
  <path
     fill="#528ff5"
     d="m14.5 7c-1.385 0-2.5 1.115-2.5 2.5v45c0 1.385 1.115 2.5 2.5 2.5h35c1.385 0 2.5-1.115 2.5-2.5v-32.5l-13.75-1.25-1.25-13.75z"
     id="path1224"
     style="fill:#4bae4f;fill-opacity:1" />
  <path
     style="opacity:0.2;fill:#ffffff"
     d="M 14.5,7 C 13.115,7 12,8.115 12,9.5 v 1 C 12,9.115 13.115,8 14.5,8 H 37 L 38.25,21.75 52,22 v 0 L 38.25,20.75 37,7 Z"
     id="path1226" />
  <path
     fill="#a5c5f9"
     d="m37 7v12.5c0 1.3808 1.1193 2.5 2.5 2.5h12.5l-15-15z"
     id="path1228"
     style="fill:#95cd97;fill-opacity:1" />
  <path
     d="m 23.873941,29.001192 h -3 v 22 h 3 z"
     id="path295"
     style="fill:#ffffff" />
  <path
     d="m 30.298729,29 h -3 v 22 h 3 z"
     id="path295-3"
     style="fill:#ffffff" />
  <path
     d="m 43,29.001192 h -3 v 22 h 3 z"
     id="path295-3-6"
     style="fill:#ffffff" />
  <path
     d="m 20.873941,35 v 3 h 22 v -3 z"
     id="path293"
     style="fill:#ffffff" />
  <path
     d="m 20.940778,48.00946 v 3 h 22 v -3 z"
     id="path293-7"
     style="fill:#ffffff" />
  <path
     d="m 21,29 v 3 h 22 v -3 z"
     id="path1230"
     style="fill:#ffffff" />
</svg>
